G75*
%MOIN*%
%OFA0B0*%
%FSLAX24Y24*%
%IPPOS*%
%LPD*%
%AMOC8*
5,1,8,0,0,1.08239X$1,22.5*
%
%ADD10C,0.1064*%
%ADD11C,0.1458*%
%ADD12R,0.0789X0.0434*%
%ADD13R,0.0867X0.0631*%
%ADD14R,0.0867X0.0681*%
%ADD15R,0.0789X0.0513*%
%ADD16C,0.0690*%
%ADD17OC8,0.0740*%
%ADD18C,0.0674*%
%ADD19R,0.0277X0.0671*%
%ADD20R,0.0671X0.0277*%
%ADD21R,0.2180X0.0840*%
%ADD22R,0.0513X0.0474*%
%ADD23C,0.0720*%
%ADD24C,0.0600*%
%ADD25C,0.0680*%
%ADD26R,0.0670X0.0870*%
%ADD27R,0.1580X0.0870*%
%ADD28R,0.0474X0.0513*%
%ADD29R,0.0356X0.0552*%
%ADD30R,0.0671X0.0592*%
%ADD31R,0.1025X0.1025*%
%ADD32C,0.0390*%
D10*
X002542Y001637D03*
X022227Y001637D03*
X022227Y021322D03*
X002542Y021322D03*
D11*
X002555Y009180D03*
X032055Y009180D03*
D12*
X024286Y012302D03*
X024286Y012971D03*
X024286Y013924D03*
X024286Y014908D03*
X024286Y015893D03*
X024286Y016582D03*
X024286Y017172D03*
X024286Y017861D03*
X024286Y018845D03*
X024286Y019830D03*
D13*
X032554Y021887D03*
D14*
X033007Y010830D03*
D15*
X024286Y011062D03*
D16*
X033853Y011330D03*
X033853Y020881D03*
D17*
X034055Y006430D03*
X033055Y006430D03*
X030805Y005430D03*
X028805Y005430D03*
X028805Y003430D03*
X030805Y003430D03*
X033055Y002430D03*
X034055Y002430D03*
X034055Y004430D03*
X033055Y004430D03*
X021180Y003430D03*
X019180Y003430D03*
X016055Y003430D03*
X014055Y003430D03*
X010930Y003430D03*
X008930Y003430D03*
X008930Y005430D03*
X010930Y005430D03*
X014055Y005430D03*
X016055Y005430D03*
X019180Y005430D03*
X021180Y005430D03*
X005805Y005430D03*
X003805Y005430D03*
X003805Y003430D03*
X005805Y003430D03*
D18*
X010180Y018633D02*
X010180Y019227D01*
X011180Y019227D02*
X011180Y018633D01*
X012180Y018633D02*
X012180Y019227D01*
X013180Y019227D02*
X013180Y018633D01*
X014180Y018633D02*
X014180Y019227D01*
X014704Y021049D02*
X014704Y021642D01*
X015704Y021642D02*
X015704Y021049D01*
X016704Y021049D02*
X016704Y021642D01*
X017704Y021642D02*
X017704Y021049D01*
X018704Y021049D02*
X018704Y021642D01*
X019704Y021642D02*
X019704Y021049D01*
X009704Y021060D02*
X009704Y021654D01*
X008704Y021654D02*
X008704Y021060D01*
X007704Y021060D02*
X007704Y021654D01*
X006704Y021654D02*
X006704Y021060D01*
X005704Y021060D02*
X005704Y021654D01*
X004704Y021654D02*
X004704Y021060D01*
D19*
X007730Y016963D03*
X008045Y016963D03*
X008360Y016963D03*
X008675Y016963D03*
X008990Y016963D03*
X009305Y016963D03*
X009620Y016963D03*
X009935Y016963D03*
X010250Y016963D03*
X010565Y016963D03*
X010880Y016963D03*
X010880Y012397D03*
X010565Y012397D03*
X010250Y012397D03*
X009935Y012397D03*
X009620Y012397D03*
X009305Y012397D03*
X008990Y012397D03*
X008675Y012397D03*
X008360Y012397D03*
X008045Y012397D03*
X007730Y012397D03*
D20*
X007022Y013105D03*
X007022Y013420D03*
X007022Y013735D03*
X007022Y014050D03*
X007022Y014365D03*
X007022Y014680D03*
X007022Y014995D03*
X007022Y015310D03*
X007022Y015625D03*
X007022Y015940D03*
X007022Y016255D03*
X011588Y016255D03*
X011588Y015940D03*
X011588Y015625D03*
X011588Y015310D03*
X011588Y014995D03*
X011588Y014680D03*
X011588Y014365D03*
X011588Y014050D03*
X011588Y013735D03*
X011588Y013420D03*
X011588Y013105D03*
D21*
X013455Y009555D03*
X009655Y009555D03*
D22*
X007640Y009555D03*
X006970Y009555D03*
X015470Y009555D03*
X016140Y009555D03*
X021595Y016305D03*
X022265Y016305D03*
X018680Y019345D03*
X018680Y020015D03*
X009640Y018055D03*
X008970Y018055D03*
X004555Y017720D03*
X004555Y018390D03*
D23*
X002305Y013180D03*
X001305Y013180D03*
X001305Y012180D03*
X002305Y012180D03*
X002305Y011180D03*
X001305Y011180D03*
D24*
X024055Y006315D02*
X024055Y005795D01*
X025055Y005795D02*
X025055Y006315D01*
X026055Y006315D02*
X026055Y005795D01*
X026055Y003315D02*
X026055Y002795D01*
X025055Y002795D02*
X025055Y003315D01*
X024055Y003315D02*
X024055Y002795D01*
D25*
X003430Y017380D02*
X003430Y017980D01*
X001430Y017980D02*
X001430Y017380D01*
X002130Y019680D02*
X002730Y019680D01*
D26*
X016770Y014045D03*
X017670Y014045D03*
X018570Y014045D03*
D27*
X017680Y011565D03*
D28*
X012930Y013845D03*
X012930Y014515D03*
X015970Y017055D03*
X016640Y017055D03*
X016640Y017805D03*
X015970Y017805D03*
X015970Y018555D03*
X016640Y018555D03*
X021595Y018805D03*
X022265Y018805D03*
X022265Y017930D03*
X021595Y017930D03*
X021595Y017055D03*
X022265Y017055D03*
X022265Y015555D03*
X021595Y015555D03*
X021595Y014805D03*
X022265Y014805D03*
X022265Y019680D03*
X021595Y019680D03*
X007640Y010680D03*
X006970Y010680D03*
X008930Y007890D03*
X008930Y007220D03*
X014055Y007220D03*
X014055Y007890D03*
X019180Y007890D03*
X019180Y007220D03*
X028805Y007220D03*
X028805Y007890D03*
X005430Y015095D03*
X005430Y015765D03*
X004555Y018970D03*
X004555Y019640D03*
X003805Y007890D03*
X003805Y007220D03*
D29*
X013805Y011952D03*
X013805Y013408D03*
D30*
X015805Y013179D03*
X015805Y012431D03*
X019555Y012431D03*
X019555Y013179D03*
D31*
X013164Y021430D03*
X011196Y021430D03*
D32*
X005930Y018305D03*
X006180Y018055D03*
X006430Y017805D03*
X006680Y017555D03*
X005430Y016180D03*
X008180Y015680D03*
X010430Y015680D03*
X009680Y013805D03*
X009305Y013430D03*
X010055Y013430D03*
X008180Y013805D03*
X005305Y012055D03*
X004930Y012055D03*
X004555Y012055D03*
X004180Y012055D03*
X003805Y012055D03*
X003680Y013680D03*
X012180Y012305D03*
X013055Y012805D03*
X013805Y013805D03*
X014555Y012805D03*
X015430Y015305D03*
X015875Y015625D03*
X016355Y016255D03*
X016805Y015930D03*
X017305Y016555D03*
X017055Y017055D03*
X017305Y017805D03*
X017055Y018555D03*
X019305Y019305D03*
X020555Y018180D03*
X020555Y017430D03*
X022680Y016305D03*
X020555Y015930D03*
X019555Y014055D03*
X020930Y013055D03*
X021305Y013930D03*
M02*
