G75*
%MOIN*%
%OFA0B0*%
%FSLAX24Y24*%
%IPPOS*%
%LPD*%
%AMOC8*
5,1,8,0,0,1.08239X$1,22.5*
%
%ADD10C,0.0000*%
D10*
X000180Y000180D02*
X000180Y022930D01*
X035180Y022930D01*
X035180Y000180D01*
X000180Y000180D01*
X002050Y001637D02*
X002052Y001681D01*
X002058Y001725D01*
X002068Y001768D01*
X002081Y001810D01*
X002099Y001850D01*
X002120Y001889D01*
X002144Y001926D01*
X002171Y001961D01*
X002202Y001993D01*
X002235Y002022D01*
X002271Y002048D01*
X002309Y002070D01*
X002349Y002089D01*
X002390Y002105D01*
X002433Y002117D01*
X002476Y002125D01*
X002520Y002129D01*
X002564Y002129D01*
X002608Y002125D01*
X002651Y002117D01*
X002694Y002105D01*
X002735Y002089D01*
X002775Y002070D01*
X002813Y002048D01*
X002849Y002022D01*
X002882Y001993D01*
X002913Y001961D01*
X002940Y001926D01*
X002964Y001889D01*
X002985Y001850D01*
X003003Y001810D01*
X003016Y001768D01*
X003026Y001725D01*
X003032Y001681D01*
X003034Y001637D01*
X003032Y001593D01*
X003026Y001549D01*
X003016Y001506D01*
X003003Y001464D01*
X002985Y001424D01*
X002964Y001385D01*
X002940Y001348D01*
X002913Y001313D01*
X002882Y001281D01*
X002849Y001252D01*
X002813Y001226D01*
X002775Y001204D01*
X002735Y001185D01*
X002694Y001169D01*
X002651Y001157D01*
X002608Y001149D01*
X002564Y001145D01*
X002520Y001145D01*
X002476Y001149D01*
X002433Y001157D01*
X002390Y001169D01*
X002349Y001185D01*
X002309Y001204D01*
X002271Y001226D01*
X002235Y001252D01*
X002202Y001281D01*
X002171Y001313D01*
X002144Y001348D01*
X002120Y001385D01*
X002099Y001424D01*
X002081Y001464D01*
X002068Y001506D01*
X002058Y001549D01*
X002052Y001593D01*
X002050Y001637D01*
X001866Y009180D02*
X001868Y009232D01*
X001874Y009284D01*
X001884Y009335D01*
X001897Y009385D01*
X001915Y009435D01*
X001936Y009482D01*
X001960Y009528D01*
X001989Y009572D01*
X002020Y009614D01*
X002054Y009653D01*
X002091Y009690D01*
X002131Y009723D01*
X002174Y009754D01*
X002218Y009781D01*
X002264Y009805D01*
X002313Y009825D01*
X002362Y009841D01*
X002413Y009854D01*
X002464Y009863D01*
X002516Y009868D01*
X002568Y009869D01*
X002620Y009866D01*
X002672Y009859D01*
X002723Y009848D01*
X002773Y009834D01*
X002822Y009815D01*
X002869Y009793D01*
X002914Y009768D01*
X002958Y009739D01*
X002999Y009707D01*
X003038Y009672D01*
X003073Y009634D01*
X003106Y009593D01*
X003136Y009551D01*
X003162Y009506D01*
X003185Y009459D01*
X003204Y009410D01*
X003220Y009360D01*
X003232Y009310D01*
X003240Y009258D01*
X003244Y009206D01*
X003244Y009154D01*
X003240Y009102D01*
X003232Y009050D01*
X003220Y009000D01*
X003204Y008950D01*
X003185Y008901D01*
X003162Y008854D01*
X003136Y008809D01*
X003106Y008767D01*
X003073Y008726D01*
X003038Y008688D01*
X002999Y008653D01*
X002958Y008621D01*
X002914Y008592D01*
X002869Y008567D01*
X002822Y008545D01*
X002773Y008526D01*
X002723Y008512D01*
X002672Y008501D01*
X002620Y008494D01*
X002568Y008491D01*
X002516Y008492D01*
X002464Y008497D01*
X002413Y008506D01*
X002362Y008519D01*
X002313Y008535D01*
X002264Y008555D01*
X002218Y008579D01*
X002174Y008606D01*
X002131Y008637D01*
X002091Y008670D01*
X002054Y008707D01*
X002020Y008746D01*
X001989Y008788D01*
X001960Y008832D01*
X001936Y008878D01*
X001915Y008925D01*
X001897Y008975D01*
X001884Y009025D01*
X001874Y009076D01*
X001868Y009128D01*
X001866Y009180D01*
X002050Y021322D02*
X002052Y021366D01*
X002058Y021410D01*
X002068Y021453D01*
X002081Y021495D01*
X002099Y021535D01*
X002120Y021574D01*
X002144Y021611D01*
X002171Y021646D01*
X002202Y021678D01*
X002235Y021707D01*
X002271Y021733D01*
X002309Y021755D01*
X002349Y021774D01*
X002390Y021790D01*
X002433Y021802D01*
X002476Y021810D01*
X002520Y021814D01*
X002564Y021814D01*
X002608Y021810D01*
X002651Y021802D01*
X002694Y021790D01*
X002735Y021774D01*
X002775Y021755D01*
X002813Y021733D01*
X002849Y021707D01*
X002882Y021678D01*
X002913Y021646D01*
X002940Y021611D01*
X002964Y021574D01*
X002985Y021535D01*
X003003Y021495D01*
X003016Y021453D01*
X003026Y021410D01*
X003032Y021366D01*
X003034Y021322D01*
X003032Y021278D01*
X003026Y021234D01*
X003016Y021191D01*
X003003Y021149D01*
X002985Y021109D01*
X002964Y021070D01*
X002940Y021033D01*
X002913Y020998D01*
X002882Y020966D01*
X002849Y020937D01*
X002813Y020911D01*
X002775Y020889D01*
X002735Y020870D01*
X002694Y020854D01*
X002651Y020842D01*
X002608Y020834D01*
X002564Y020830D01*
X002520Y020830D01*
X002476Y020834D01*
X002433Y020842D01*
X002390Y020854D01*
X002349Y020870D01*
X002309Y020889D01*
X002271Y020911D01*
X002235Y020937D01*
X002202Y020966D01*
X002171Y020998D01*
X002144Y021033D01*
X002120Y021070D01*
X002099Y021109D01*
X002081Y021149D01*
X002068Y021191D01*
X002058Y021234D01*
X002052Y021278D01*
X002050Y021322D01*
X021735Y021322D02*
X021737Y021366D01*
X021743Y021410D01*
X021753Y021453D01*
X021766Y021495D01*
X021784Y021535D01*
X021805Y021574D01*
X021829Y021611D01*
X021856Y021646D01*
X021887Y021678D01*
X021920Y021707D01*
X021956Y021733D01*
X021994Y021755D01*
X022034Y021774D01*
X022075Y021790D01*
X022118Y021802D01*
X022161Y021810D01*
X022205Y021814D01*
X022249Y021814D01*
X022293Y021810D01*
X022336Y021802D01*
X022379Y021790D01*
X022420Y021774D01*
X022460Y021755D01*
X022498Y021733D01*
X022534Y021707D01*
X022567Y021678D01*
X022598Y021646D01*
X022625Y021611D01*
X022649Y021574D01*
X022670Y021535D01*
X022688Y021495D01*
X022701Y021453D01*
X022711Y021410D01*
X022717Y021366D01*
X022719Y021322D01*
X022717Y021278D01*
X022711Y021234D01*
X022701Y021191D01*
X022688Y021149D01*
X022670Y021109D01*
X022649Y021070D01*
X022625Y021033D01*
X022598Y020998D01*
X022567Y020966D01*
X022534Y020937D01*
X022498Y020911D01*
X022460Y020889D01*
X022420Y020870D01*
X022379Y020854D01*
X022336Y020842D01*
X022293Y020834D01*
X022249Y020830D01*
X022205Y020830D01*
X022161Y020834D01*
X022118Y020842D01*
X022075Y020854D01*
X022034Y020870D01*
X021994Y020889D01*
X021956Y020911D01*
X021920Y020937D01*
X021887Y020966D01*
X021856Y020998D01*
X021829Y021033D01*
X021805Y021070D01*
X021784Y021109D01*
X021766Y021149D01*
X021753Y021191D01*
X021743Y021234D01*
X021737Y021278D01*
X021735Y021322D01*
X033548Y020881D02*
X033550Y020916D01*
X033556Y020950D01*
X033566Y020983D01*
X033579Y021016D01*
X033596Y021046D01*
X033617Y021074D01*
X033640Y021100D01*
X033667Y021123D01*
X033695Y021142D01*
X033726Y021158D01*
X033759Y021171D01*
X033792Y021180D01*
X033827Y021185D01*
X033862Y021186D01*
X033896Y021183D01*
X033931Y021176D01*
X033964Y021165D01*
X033995Y021151D01*
X034025Y021133D01*
X034053Y021112D01*
X034078Y021087D01*
X034100Y021060D01*
X034119Y021031D01*
X034134Y021000D01*
X034146Y020967D01*
X034154Y020933D01*
X034158Y020898D01*
X034158Y020864D01*
X034154Y020829D01*
X034146Y020795D01*
X034134Y020762D01*
X034119Y020731D01*
X034100Y020702D01*
X034078Y020675D01*
X034053Y020650D01*
X034025Y020629D01*
X033995Y020611D01*
X033964Y020597D01*
X033931Y020586D01*
X033896Y020579D01*
X033862Y020576D01*
X033827Y020577D01*
X033792Y020582D01*
X033759Y020591D01*
X033726Y020604D01*
X033695Y020620D01*
X033667Y020639D01*
X033640Y020662D01*
X033617Y020688D01*
X033596Y020716D01*
X033579Y020746D01*
X033566Y020779D01*
X033556Y020812D01*
X033550Y020846D01*
X033548Y020881D01*
X033548Y011330D02*
X033550Y011365D01*
X033556Y011399D01*
X033566Y011432D01*
X033579Y011465D01*
X033596Y011495D01*
X033617Y011523D01*
X033640Y011549D01*
X033667Y011572D01*
X033695Y011591D01*
X033726Y011607D01*
X033759Y011620D01*
X033792Y011629D01*
X033827Y011634D01*
X033862Y011635D01*
X033896Y011632D01*
X033931Y011625D01*
X033964Y011614D01*
X033995Y011600D01*
X034025Y011582D01*
X034053Y011561D01*
X034078Y011536D01*
X034100Y011509D01*
X034119Y011480D01*
X034134Y011449D01*
X034146Y011416D01*
X034154Y011382D01*
X034158Y011347D01*
X034158Y011313D01*
X034154Y011278D01*
X034146Y011244D01*
X034134Y011211D01*
X034119Y011180D01*
X034100Y011151D01*
X034078Y011124D01*
X034053Y011099D01*
X034025Y011078D01*
X033995Y011060D01*
X033964Y011046D01*
X033931Y011035D01*
X033896Y011028D01*
X033862Y011025D01*
X033827Y011026D01*
X033792Y011031D01*
X033759Y011040D01*
X033726Y011053D01*
X033695Y011069D01*
X033667Y011088D01*
X033640Y011111D01*
X033617Y011137D01*
X033596Y011165D01*
X033579Y011195D01*
X033566Y011228D01*
X033556Y011261D01*
X033550Y011295D01*
X033548Y011330D01*
X031366Y009180D02*
X031368Y009232D01*
X031374Y009284D01*
X031384Y009335D01*
X031397Y009385D01*
X031415Y009435D01*
X031436Y009482D01*
X031460Y009528D01*
X031489Y009572D01*
X031520Y009614D01*
X031554Y009653D01*
X031591Y009690D01*
X031631Y009723D01*
X031674Y009754D01*
X031718Y009781D01*
X031764Y009805D01*
X031813Y009825D01*
X031862Y009841D01*
X031913Y009854D01*
X031964Y009863D01*
X032016Y009868D01*
X032068Y009869D01*
X032120Y009866D01*
X032172Y009859D01*
X032223Y009848D01*
X032273Y009834D01*
X032322Y009815D01*
X032369Y009793D01*
X032414Y009768D01*
X032458Y009739D01*
X032499Y009707D01*
X032538Y009672D01*
X032573Y009634D01*
X032606Y009593D01*
X032636Y009551D01*
X032662Y009506D01*
X032685Y009459D01*
X032704Y009410D01*
X032720Y009360D01*
X032732Y009310D01*
X032740Y009258D01*
X032744Y009206D01*
X032744Y009154D01*
X032740Y009102D01*
X032732Y009050D01*
X032720Y009000D01*
X032704Y008950D01*
X032685Y008901D01*
X032662Y008854D01*
X032636Y008809D01*
X032606Y008767D01*
X032573Y008726D01*
X032538Y008688D01*
X032499Y008653D01*
X032458Y008621D01*
X032414Y008592D01*
X032369Y008567D01*
X032322Y008545D01*
X032273Y008526D01*
X032223Y008512D01*
X032172Y008501D01*
X032120Y008494D01*
X032068Y008491D01*
X032016Y008492D01*
X031964Y008497D01*
X031913Y008506D01*
X031862Y008519D01*
X031813Y008535D01*
X031764Y008555D01*
X031718Y008579D01*
X031674Y008606D01*
X031631Y008637D01*
X031591Y008670D01*
X031554Y008707D01*
X031520Y008746D01*
X031489Y008788D01*
X031460Y008832D01*
X031436Y008878D01*
X031415Y008925D01*
X031397Y008975D01*
X031384Y009025D01*
X031374Y009076D01*
X031368Y009128D01*
X031366Y009180D01*
X021735Y001637D02*
X021737Y001681D01*
X021743Y001725D01*
X021753Y001768D01*
X021766Y001810D01*
X021784Y001850D01*
X021805Y001889D01*
X021829Y001926D01*
X021856Y001961D01*
X021887Y001993D01*
X021920Y002022D01*
X021956Y002048D01*
X021994Y002070D01*
X022034Y002089D01*
X022075Y002105D01*
X022118Y002117D01*
X022161Y002125D01*
X022205Y002129D01*
X022249Y002129D01*
X022293Y002125D01*
X022336Y002117D01*
X022379Y002105D01*
X022420Y002089D01*
X022460Y002070D01*
X022498Y002048D01*
X022534Y002022D01*
X022567Y001993D01*
X022598Y001961D01*
X022625Y001926D01*
X022649Y001889D01*
X022670Y001850D01*
X022688Y001810D01*
X022701Y001768D01*
X022711Y001725D01*
X022717Y001681D01*
X022719Y001637D01*
X022717Y001593D01*
X022711Y001549D01*
X022701Y001506D01*
X022688Y001464D01*
X022670Y001424D01*
X022649Y001385D01*
X022625Y001348D01*
X022598Y001313D01*
X022567Y001281D01*
X022534Y001252D01*
X022498Y001226D01*
X022460Y001204D01*
X022420Y001185D01*
X022379Y001169D01*
X022336Y001157D01*
X022293Y001149D01*
X022249Y001145D01*
X022205Y001145D01*
X022161Y001149D01*
X022118Y001157D01*
X022075Y001169D01*
X022034Y001185D01*
X021994Y001204D01*
X021956Y001226D01*
X021920Y001252D01*
X021887Y001281D01*
X021856Y001313D01*
X021829Y001348D01*
X021805Y001385D01*
X021784Y001424D01*
X021766Y001464D01*
X021753Y001506D01*
X021743Y001549D01*
X021737Y001593D01*
X021735Y001637D01*
M02*
