%
M48
M72
T01C0.0150
T02C0.0320
T03C0.0354
T04C0.0394
T05C0.0400
T06C0.0440
T07C0.0610
T08C0.0984
T09C0.1378
%
T01
X3805Y12055
X4180Y12055
X4555Y12055
X4930Y12055
X5305Y12055
X3680Y13680
X5430Y16180
X6680Y17555
X6430Y17805
X6180Y18055
X5930Y18305
X8180Y15680
X10430Y15680
X9680Y13805
X9305Y13430
X10055Y13430
X8180Y13805
X12180Y12305
X13055Y12805
X13805Y13805
X14555Y12805
X15430Y15305
X15875Y15625
X16355Y16255
X16805Y15930
X17305Y16555
X17055Y17055
X17305Y17805
X17055Y18555
X19305Y19305
X20555Y18180
X20555Y17430
X22680Y16305
X20555Y15930
X19555Y14055
X20930Y13055
X21305Y13930
T02
X33055Y6430
X34055Y6430
X34055Y4430
X33055Y4430
X33055Y2430
X34055Y2430
X26055Y3055
X25055Y3055
X24055Y3055
X24055Y6055
X25055Y6055
X26055Y6055
T03
X2305Y11180
X1305Y11180
X1305Y12180
X2305Y12180
X2305Y13180
X1305Y13180
T04
X10180Y18930
X11180Y18930
X12180Y18930
X13180Y18930
X14180Y18930
X14704Y21345
X15704Y21345
X16704Y21345
X17704Y21345
X18704Y21345
X19704Y21345
X9704Y21357
X8704Y21357
X7704Y21357
X6704Y21357
X5704Y21357
X4704Y21357
T05
X2430Y19680
X1430Y17680
X3430Y17680
T06
X3805Y5430
X5805Y5430
X5805Y3430
X3805Y3430
X8930Y3430
X10930Y3430
X14055Y3430
X16055Y3430
X19180Y3430
X21180Y3430
X21180Y5430
X19180Y5430
X16055Y5430
X14055Y5430
X10930Y5430
X8930Y5430
X28805Y5430
X30805Y5430
X30805Y3430
X28805Y3430
T07
X33853Y11330
X33853Y20881
T08
X2542Y1637
X22227Y1637
X22227Y21322
X2542Y21322
T09
X2555Y9180
X32055Y9180
M30
