G75*
%MOIN*%
%OFA0B0*%
%FSLAX24Y24*%
%IPPOS*%
%LPD*%
%AMOC8*
5,1,8,0,0,1.08239X$1,22.5*
%
%ADD10R,0.0709X0.0354*%
%ADD11R,0.0787X0.0551*%
%ADD12R,0.0787X0.0601*%
%ADD13R,0.0709X0.0433*%
%ADD14OC8,0.0660*%
%ADD15C,0.0594*%
%ADD16R,0.0197X0.0591*%
%ADD17R,0.0591X0.0197*%
%ADD18R,0.2100X0.0760*%
%ADD19R,0.0433X0.0394*%
%ADD20C,0.0640*%
%ADD21C,0.0520*%
%ADD22C,0.0600*%
%ADD23R,0.0590X0.0790*%
%ADD24R,0.1500X0.0790*%
%ADD25R,0.0394X0.0433*%
%ADD26R,0.0276X0.0472*%
%ADD27R,0.0591X0.0512*%
%ADD28R,0.0945X0.0945*%
%ADD29C,0.0160*%
%ADD30C,0.0120*%
%ADD31C,0.0310*%
D10*
X024286Y012302D03*
X024286Y012971D03*
X024286Y013924D03*
X024286Y014908D03*
X024286Y015893D03*
X024286Y016582D03*
X024286Y017172D03*
X024286Y017861D03*
X024286Y018845D03*
X024286Y019830D03*
D11*
X032554Y021887D03*
D12*
X033007Y010830D03*
D13*
X024286Y011062D03*
D14*
X033055Y006430D03*
X034055Y006430D03*
X034055Y004430D03*
X033055Y004430D03*
X030805Y003430D03*
X028805Y003430D03*
X028805Y005430D03*
X030805Y005430D03*
X033055Y002430D03*
X034055Y002430D03*
X021180Y003430D03*
X019180Y003430D03*
X016055Y003430D03*
X014055Y003430D03*
X010930Y003430D03*
X008930Y003430D03*
X008930Y005430D03*
X010930Y005430D03*
X014055Y005430D03*
X016055Y005430D03*
X019180Y005430D03*
X021180Y005430D03*
X005805Y005430D03*
X003805Y005430D03*
X003805Y003430D03*
X005805Y003430D03*
D15*
X010180Y018633D02*
X010180Y019227D01*
X011180Y019227D02*
X011180Y018633D01*
X012180Y018633D02*
X012180Y019227D01*
X013180Y019227D02*
X013180Y018633D01*
X014180Y018633D02*
X014180Y019227D01*
X014704Y021049D02*
X014704Y021642D01*
X015704Y021642D02*
X015704Y021049D01*
X016704Y021049D02*
X016704Y021642D01*
X017704Y021642D02*
X017704Y021049D01*
X018704Y021049D02*
X018704Y021642D01*
X019704Y021642D02*
X019704Y021049D01*
X009704Y021060D02*
X009704Y021654D01*
X008704Y021654D02*
X008704Y021060D01*
X007704Y021060D02*
X007704Y021654D01*
X006704Y021654D02*
X006704Y021060D01*
X005704Y021060D02*
X005704Y021654D01*
X004704Y021654D02*
X004704Y021060D01*
D16*
X007730Y016963D03*
X008045Y016963D03*
X008360Y016963D03*
X008675Y016963D03*
X008990Y016963D03*
X009305Y016963D03*
X009620Y016963D03*
X009935Y016963D03*
X010250Y016963D03*
X010565Y016963D03*
X010880Y016963D03*
X010880Y012397D03*
X010565Y012397D03*
X010250Y012397D03*
X009935Y012397D03*
X009620Y012397D03*
X009305Y012397D03*
X008990Y012397D03*
X008675Y012397D03*
X008360Y012397D03*
X008045Y012397D03*
X007730Y012397D03*
D17*
X007022Y013105D03*
X007022Y013420D03*
X007022Y013735D03*
X007022Y014050D03*
X007022Y014365D03*
X007022Y014680D03*
X007022Y014995D03*
X007022Y015310D03*
X007022Y015625D03*
X007022Y015940D03*
X007022Y016255D03*
X011588Y016255D03*
X011588Y015940D03*
X011588Y015625D03*
X011588Y015310D03*
X011588Y014995D03*
X011588Y014680D03*
X011588Y014365D03*
X011588Y014050D03*
X011588Y013735D03*
X011588Y013420D03*
X011588Y013105D03*
D18*
X013455Y009555D03*
X009655Y009555D03*
D19*
X007640Y009555D03*
X006970Y009555D03*
X015470Y009555D03*
X016140Y009555D03*
X021595Y016305D03*
X022265Y016305D03*
X018680Y019345D03*
X018680Y020015D03*
X009640Y018055D03*
X008970Y018055D03*
X004555Y017720D03*
X004555Y018390D03*
D20*
X002305Y013180D03*
X001305Y013180D03*
X001305Y012180D03*
X002305Y012180D03*
X002305Y011180D03*
X001305Y011180D03*
D21*
X024055Y006315D02*
X024055Y005795D01*
X025055Y005795D02*
X025055Y006315D01*
X026055Y006315D02*
X026055Y005795D01*
X026055Y003315D02*
X026055Y002795D01*
X025055Y002795D02*
X025055Y003315D01*
X024055Y003315D02*
X024055Y002795D01*
D22*
X003430Y017380D02*
X003430Y017980D01*
X001430Y017980D02*
X001430Y017380D01*
X002130Y019680D02*
X002730Y019680D01*
D23*
X016770Y014045D03*
X017670Y014045D03*
X018570Y014045D03*
D24*
X017680Y011565D03*
D25*
X012930Y013845D03*
X012930Y014515D03*
X015970Y017055D03*
X016640Y017055D03*
X016640Y017805D03*
X015970Y017805D03*
X015970Y018555D03*
X016640Y018555D03*
X021595Y018805D03*
X022265Y018805D03*
X022265Y017930D03*
X021595Y017930D03*
X021595Y017055D03*
X022265Y017055D03*
X022265Y015555D03*
X021595Y015555D03*
X021595Y014805D03*
X022265Y014805D03*
X022265Y019680D03*
X021595Y019680D03*
X007640Y010680D03*
X006970Y010680D03*
X008930Y007890D03*
X008930Y007220D03*
X014055Y007220D03*
X014055Y007890D03*
X019180Y007890D03*
X019180Y007220D03*
X028805Y007220D03*
X028805Y007890D03*
X005430Y015095D03*
X005430Y015765D03*
X004555Y018970D03*
X004555Y019640D03*
X003805Y007890D03*
X003805Y007220D03*
D26*
X013805Y011952D03*
X013805Y013408D03*
D27*
X015805Y013179D03*
X015805Y012431D03*
X019555Y012431D03*
X019555Y013179D03*
D28*
X013164Y021430D03*
X011196Y021430D03*
D29*
X000660Y022450D02*
X000660Y000660D01*
X034700Y000660D01*
X034700Y022450D01*
X000660Y022450D01*
X000660Y022370D02*
X034700Y022370D01*
X034700Y022212D02*
X033121Y022212D01*
X033115Y022232D02*
X033092Y022273D01*
X033058Y022307D01*
X033017Y022330D01*
X032971Y022343D01*
X032612Y022343D01*
X032612Y021945D01*
X033128Y021945D01*
X033128Y022186D01*
X033115Y022232D01*
X033128Y022053D02*
X034700Y022053D01*
X034700Y021895D02*
X032612Y021895D01*
X032612Y021945D02*
X032612Y021829D01*
X032612Y021431D01*
X032971Y021431D01*
X033017Y021444D01*
X033058Y021467D01*
X033092Y021501D01*
X033115Y021542D01*
X033128Y021588D01*
X033128Y021829D01*
X032612Y021829D01*
X032496Y021829D01*
X032496Y021431D01*
X032137Y021431D01*
X032091Y021444D01*
X032050Y021467D01*
X032016Y021501D01*
X031993Y021542D01*
X031980Y021588D01*
X031980Y021829D01*
X032496Y021829D01*
X032496Y021945D01*
X031980Y021945D01*
X031980Y022186D01*
X031993Y022232D01*
X032016Y022273D01*
X032050Y022307D01*
X032091Y022330D01*
X032137Y022343D01*
X032496Y022343D01*
X032496Y021945D01*
X032612Y021945D01*
X032612Y022053D02*
X032496Y022053D01*
X032496Y021895D02*
X023029Y021895D01*
X023051Y021872D02*
X022778Y022146D01*
X022421Y022294D01*
X022034Y022294D01*
X021677Y022146D01*
X021403Y021872D01*
X021255Y021515D01*
X021255Y021128D01*
X021403Y020771D01*
X021677Y020498D01*
X022034Y020350D01*
X022421Y020350D01*
X022778Y020498D01*
X023051Y020771D01*
X023199Y021128D01*
X023199Y021515D01*
X023051Y021872D01*
X023108Y021736D02*
X031980Y021736D01*
X031983Y021578D02*
X023174Y021578D01*
X023199Y021419D02*
X033281Y021419D01*
X033188Y021326D02*
X033068Y021037D01*
X033068Y020725D01*
X033188Y020436D01*
X033408Y020215D01*
X033697Y020096D01*
X034009Y020096D01*
X034298Y020215D01*
X034519Y020436D01*
X034638Y020725D01*
X034638Y021037D01*
X034519Y021326D01*
X034298Y021546D01*
X034009Y021666D01*
X033697Y021666D01*
X033408Y021546D01*
X033188Y021326D01*
X033161Y021261D02*
X023199Y021261D01*
X023188Y021102D02*
X033095Y021102D01*
X033068Y020944D02*
X023123Y020944D01*
X023057Y020785D02*
X033068Y020785D01*
X033109Y020627D02*
X022907Y020627D01*
X022707Y020468D02*
X033174Y020468D01*
X033314Y020310D02*
X019124Y020310D01*
X019127Y020307D02*
X018994Y020440D01*
X018994Y020598D01*
X019002Y020602D01*
X019150Y020750D01*
X019230Y020944D01*
X019230Y020988D01*
X019239Y020937D01*
X019262Y020865D01*
X019296Y020799D01*
X019340Y020738D01*
X019393Y020685D01*
X019454Y020641D01*
X019521Y020607D01*
X019592Y020583D01*
X019666Y020572D01*
X019685Y020572D01*
X019685Y021327D01*
X019722Y021327D01*
X019722Y021364D01*
X019685Y021364D01*
X019685Y022119D01*
X019666Y022119D01*
X019592Y022107D01*
X019521Y022084D01*
X019454Y022050D01*
X019393Y022006D01*
X019340Y021953D01*
X019296Y021892D01*
X019262Y021825D01*
X019239Y021754D01*
X019230Y021703D01*
X019230Y021747D01*
X019150Y021941D01*
X019002Y022089D01*
X018808Y022169D01*
X018599Y022169D01*
X018405Y022089D01*
X018257Y021941D01*
X018204Y021812D01*
X018150Y021941D01*
X018002Y022089D01*
X017808Y022169D01*
X017599Y022169D01*
X017405Y022089D01*
X017257Y021941D01*
X017204Y021812D01*
X017150Y021941D01*
X017002Y022089D01*
X016808Y022169D01*
X016599Y022169D01*
X016405Y022089D01*
X016257Y021941D01*
X016204Y021812D01*
X016150Y021941D01*
X016002Y022089D01*
X015808Y022169D01*
X015599Y022169D01*
X015405Y022089D01*
X015257Y021941D01*
X015204Y021812D01*
X015150Y021941D01*
X015002Y022089D01*
X014808Y022169D01*
X014599Y022169D01*
X014405Y022089D01*
X014257Y021941D01*
X014177Y021747D01*
X014177Y020944D01*
X014257Y020750D01*
X014405Y020602D01*
X014599Y020522D01*
X014808Y020522D01*
X015002Y020602D01*
X015150Y020750D01*
X015204Y020879D01*
X015257Y020750D01*
X015405Y020602D01*
X015599Y020522D01*
X015808Y020522D01*
X016002Y020602D01*
X016150Y020750D01*
X016204Y020879D01*
X016257Y020750D01*
X016405Y020602D01*
X016599Y020522D01*
X016808Y020522D01*
X017002Y020602D01*
X017150Y020750D01*
X017204Y020879D01*
X017257Y020750D01*
X017405Y020602D01*
X017599Y020522D01*
X017808Y020522D01*
X018002Y020602D01*
X018150Y020750D01*
X018204Y020879D01*
X018257Y020750D01*
X018405Y020602D01*
X018414Y020598D01*
X018414Y020441D01*
X018368Y020441D01*
X018233Y020307D01*
X018233Y019723D01*
X018276Y019680D01*
X018233Y019637D01*
X018233Y019635D01*
X017510Y019635D01*
X016801Y020344D01*
X016719Y020426D01*
X016613Y020470D01*
X011486Y020470D01*
X011486Y020728D01*
X011763Y020728D01*
X011898Y020862D01*
X011898Y021998D01*
X011763Y022132D01*
X010628Y022132D01*
X010493Y021998D01*
X010493Y020862D01*
X010628Y020728D01*
X010906Y020728D01*
X010906Y020470D01*
X010372Y020470D01*
X010266Y020426D01*
X010016Y020176D01*
X009934Y020094D01*
X009890Y019988D01*
X009890Y019677D01*
X009882Y019673D01*
X009733Y019525D01*
X009653Y019332D01*
X009653Y018813D01*
X009394Y018554D01*
X009364Y018482D01*
X009328Y018482D01*
X009262Y018416D01*
X009256Y018420D01*
X009211Y018432D01*
X008989Y018432D01*
X008989Y018073D01*
X008952Y018073D01*
X008952Y018432D01*
X008730Y018432D01*
X008684Y018420D01*
X008650Y018400D01*
X008650Y019615D01*
X009577Y020542D01*
X009599Y020533D01*
X009808Y020533D01*
X010002Y020614D01*
X010150Y020762D01*
X010230Y020956D01*
X010230Y021759D01*
X010150Y021952D01*
X010002Y022101D01*
X009808Y022181D01*
X009599Y022181D01*
X009405Y022101D01*
X009257Y021952D01*
X009204Y021824D01*
X009150Y021952D01*
X009002Y022101D01*
X008808Y022181D01*
X008599Y022181D01*
X008405Y022101D01*
X008257Y021952D01*
X008204Y021824D01*
X008150Y021952D01*
X008002Y022101D01*
X007808Y022181D01*
X007599Y022181D01*
X007405Y022101D01*
X007257Y021952D01*
X007204Y021824D01*
X007150Y021952D01*
X007002Y022101D01*
X006808Y022181D01*
X006599Y022181D01*
X006405Y022101D01*
X006257Y021952D01*
X006204Y021824D01*
X006150Y021952D01*
X006002Y022101D01*
X005808Y022181D01*
X005599Y022181D01*
X005405Y022101D01*
X005257Y021952D01*
X005177Y021759D01*
X005177Y021715D01*
X005169Y021766D01*
X005146Y021837D01*
X005111Y021904D01*
X005067Y021965D01*
X005014Y022018D01*
X004954Y022062D01*
X004887Y022096D01*
X004815Y022119D01*
X004741Y022131D01*
X004722Y022131D01*
X004722Y021376D01*
X004685Y021376D01*
X004685Y022131D01*
X004666Y022131D01*
X004592Y022119D01*
X004521Y022096D01*
X004454Y022062D01*
X004393Y022018D01*
X004340Y021965D01*
X004296Y021904D01*
X004262Y021837D01*
X004239Y021766D01*
X004227Y021692D01*
X004227Y021376D01*
X004685Y021376D01*
X004685Y021339D01*
X004227Y021339D01*
X004227Y021023D01*
X004239Y020949D01*
X004262Y020877D01*
X004296Y020810D01*
X004340Y020750D01*
X004393Y020697D01*
X004454Y020652D01*
X004521Y020618D01*
X004592Y020595D01*
X004666Y020583D01*
X004685Y020583D01*
X004685Y021339D01*
X004722Y021339D01*
X004722Y020583D01*
X004741Y020583D01*
X004815Y020595D01*
X004887Y020618D01*
X004954Y020652D01*
X005014Y020697D01*
X005067Y020750D01*
X005111Y020810D01*
X005146Y020877D01*
X005169Y020949D01*
X005177Y020999D01*
X005177Y020956D01*
X005257Y020762D01*
X005405Y020614D01*
X005414Y020610D01*
X005414Y019324D01*
X005350Y019260D01*
X004982Y019260D01*
X004982Y019282D01*
X004959Y019305D01*
X004982Y019328D01*
X004982Y019951D01*
X004847Y020086D01*
X004263Y020086D01*
X004128Y019951D01*
X004128Y019930D01*
X003200Y019930D01*
X003179Y019980D01*
X003030Y020129D01*
X002835Y020210D01*
X002025Y020210D01*
X001830Y020129D01*
X001681Y019980D01*
X001600Y019785D01*
X001600Y019575D01*
X001681Y019380D01*
X001830Y019231D01*
X002025Y019150D01*
X002835Y019150D01*
X003030Y019231D01*
X003149Y019350D01*
X004128Y019350D01*
X004128Y019328D01*
X004151Y019305D01*
X004128Y019282D01*
X004128Y019260D01*
X003163Y019260D01*
X003056Y019216D01*
X002975Y019135D01*
X002059Y018219D01*
X002015Y018113D01*
X002015Y013655D01*
X001993Y013646D01*
X001839Y013492D01*
X001805Y013410D01*
X001771Y013492D01*
X001617Y013646D01*
X001414Y013730D01*
X001196Y013730D01*
X000993Y013646D01*
X000839Y013492D01*
X000755Y013289D01*
X000755Y013071D01*
X000839Y012868D01*
X000993Y012714D01*
X001075Y012680D01*
X000993Y012646D01*
X000839Y012492D01*
X000755Y012289D01*
X000755Y012071D01*
X000839Y011868D01*
X000993Y011714D01*
X001075Y011680D01*
X000993Y011646D01*
X000839Y011492D01*
X000755Y011289D01*
X000755Y011071D01*
X000839Y010868D01*
X000993Y010714D01*
X001036Y010696D01*
X001059Y010641D01*
X000660Y010641D01*
X000660Y010483D02*
X001217Y010483D01*
X001059Y010641D02*
X001434Y010266D01*
X001516Y010184D01*
X001622Y010140D01*
X001880Y010140D01*
X001837Y010115D01*
X001620Y009898D01*
X001466Y009631D01*
X001386Y009334D01*
X001386Y009026D01*
X001466Y008729D01*
X001620Y008462D01*
X001837Y008245D01*
X002104Y008091D01*
X002401Y008011D01*
X002709Y008011D01*
X003006Y008091D01*
X003273Y008245D01*
X003490Y008462D01*
X003644Y008729D01*
X003724Y009026D01*
X003724Y009334D01*
X003644Y009631D01*
X003490Y009898D01*
X003273Y010115D01*
X003230Y010140D01*
X006488Y010140D01*
X006594Y010184D01*
X006661Y010251D01*
X006678Y010233D01*
X007262Y010233D01*
X007305Y010276D01*
X007348Y010233D01*
X007932Y010233D01*
X008066Y010368D01*
X008066Y010390D01*
X008363Y010390D01*
X008469Y010434D01*
X008551Y010516D01*
X009236Y011201D01*
X009280Y011307D01*
X009280Y011921D01*
X009305Y011921D01*
X009330Y011921D01*
X009330Y010165D01*
X008510Y010165D01*
X008375Y010030D01*
X008375Y009845D01*
X008086Y009845D01*
X008086Y009847D01*
X007951Y009982D01*
X007328Y009982D01*
X007262Y009916D01*
X007256Y009920D01*
X007211Y009932D01*
X006989Y009932D01*
X006989Y009573D01*
X006952Y009573D01*
X006952Y009537D01*
X006574Y009537D01*
X006574Y009334D01*
X006586Y009289D01*
X006610Y009248D01*
X006643Y009214D01*
X006684Y009190D01*
X006730Y009178D01*
X006952Y009178D01*
X006952Y009537D01*
X006989Y009537D01*
X006989Y009178D01*
X007211Y009178D01*
X007256Y009190D01*
X007262Y009194D01*
X007328Y009128D01*
X007951Y009128D01*
X008086Y009263D01*
X008086Y009265D01*
X008375Y009265D01*
X008375Y009080D01*
X008510Y008945D01*
X010800Y008945D01*
X010935Y009080D01*
X010935Y010030D01*
X010800Y010165D01*
X009910Y010165D01*
X009910Y010540D01*
X010059Y010391D01*
X010141Y010309D01*
X010247Y010265D01*
X013060Y010265D01*
X013140Y010185D01*
X013140Y010165D01*
X012310Y010165D01*
X012175Y010030D01*
X012175Y009080D01*
X012310Y008945D01*
X014600Y008945D01*
X014735Y009080D01*
X014735Y009265D01*
X015024Y009265D01*
X015024Y009263D01*
X015159Y009128D01*
X015782Y009128D01*
X015848Y009194D01*
X015854Y009190D01*
X015899Y009178D01*
X016121Y009178D01*
X016121Y009537D01*
X016158Y009537D01*
X016158Y009573D01*
X016536Y009573D01*
X016536Y009776D01*
X016524Y009821D01*
X016500Y009862D01*
X016467Y009896D01*
X016426Y009920D01*
X016380Y009932D01*
X016158Y009932D01*
X016158Y009573D01*
X016121Y009573D01*
X016121Y009932D01*
X015899Y009932D01*
X015854Y009920D01*
X015848Y009916D01*
X015782Y009982D01*
X015159Y009982D01*
X015024Y009847D01*
X015024Y009845D01*
X014735Y009845D01*
X014735Y010030D01*
X014600Y010165D01*
X013720Y010165D01*
X013720Y010363D01*
X013676Y010469D01*
X013594Y010551D01*
X013344Y010801D01*
X013238Y010845D01*
X010425Y010845D01*
X010380Y010890D01*
X014363Y010890D01*
X014469Y010934D01*
X014719Y011184D01*
X014801Y011266D01*
X014845Y011372D01*
X014845Y012551D01*
X014881Y012587D01*
X014940Y012728D01*
X014940Y012882D01*
X014881Y013023D01*
X014773Y013131D01*
X014632Y013190D01*
X014478Y013190D01*
X014337Y013131D01*
X014229Y013023D01*
X014170Y012882D01*
X014170Y012728D01*
X014229Y012587D01*
X014265Y012551D01*
X014265Y011550D01*
X014185Y011470D01*
X014005Y011470D01*
X014021Y011485D01*
X014038Y011485D01*
X014173Y011620D01*
X014173Y012283D01*
X014038Y012418D01*
X013572Y012418D01*
X013437Y012283D01*
X013437Y011722D01*
X013435Y011720D01*
X013334Y011720D01*
X013345Y011747D01*
X013345Y012551D01*
X013381Y012587D01*
X013440Y012728D01*
X013440Y012882D01*
X013381Y013023D01*
X013273Y013131D01*
X013132Y013190D01*
X012978Y013190D01*
X012837Y013131D01*
X012729Y013023D01*
X012670Y012882D01*
X012670Y012728D01*
X012729Y012587D01*
X012765Y012551D01*
X012765Y011970D01*
X011175Y011970D01*
X011174Y011971D01*
X011208Y012006D01*
X011208Y012777D01*
X011979Y012777D01*
X012114Y012912D01*
X012114Y014390D01*
X012185Y014390D01*
X012266Y014309D01*
X012372Y014265D01*
X012503Y014265D01*
X012503Y014203D01*
X012569Y014137D01*
X012565Y014131D01*
X012553Y014086D01*
X012553Y013864D01*
X012912Y013864D01*
X012912Y013827D01*
X012948Y013827D01*
X012948Y013449D01*
X013151Y013449D01*
X013196Y013461D01*
X013237Y013485D01*
X013271Y013518D01*
X013295Y013559D01*
X013307Y013605D01*
X013307Y013827D01*
X012948Y013827D01*
X012948Y013864D01*
X013307Y013864D01*
X013307Y014086D01*
X013295Y014131D01*
X013291Y014137D01*
X013357Y014203D01*
X013357Y014265D01*
X016245Y014265D01*
X016245Y013615D01*
X016196Y013665D01*
X015414Y013665D01*
X015280Y013530D01*
X015280Y012828D01*
X015345Y012762D01*
X015342Y012756D01*
X015330Y012711D01*
X015330Y012479D01*
X015757Y012479D01*
X015757Y012383D01*
X015330Y012383D01*
X015330Y012151D01*
X015342Y012106D01*
X015366Y012065D01*
X015399Y012031D01*
X015440Y012007D01*
X015486Y011995D01*
X015757Y011995D01*
X015757Y012383D01*
X015853Y012383D01*
X015853Y012479D01*
X016280Y012479D01*
X016280Y012711D01*
X016268Y012756D01*
X016265Y012762D01*
X016330Y012828D01*
X016330Y012890D01*
X016613Y012890D01*
X016719Y012934D01*
X016934Y013149D01*
X017016Y013231D01*
X017060Y013337D01*
X017060Y013420D01*
X017160Y013420D01*
X017220Y013480D01*
X017280Y013420D01*
X017380Y013420D01*
X017380Y013382D01*
X017424Y013276D01*
X017506Y013194D01*
X017766Y012934D01*
X017872Y012890D01*
X019030Y012890D01*
X019030Y012828D01*
X019095Y012762D01*
X019092Y012756D01*
X019080Y012711D01*
X019080Y012479D01*
X019507Y012479D01*
X019507Y012383D01*
X019080Y012383D01*
X019080Y012151D01*
X019092Y012106D01*
X019116Y012065D01*
X019149Y012031D01*
X019190Y012007D01*
X019236Y011995D01*
X019507Y011995D01*
X019507Y012383D01*
X019603Y012383D01*
X019603Y012479D01*
X020030Y012479D01*
X020030Y012711D01*
X020018Y012756D01*
X020015Y012762D01*
X020080Y012828D01*
X020080Y013530D01*
X019946Y013665D01*
X019845Y013665D01*
X019845Y013801D01*
X019881Y013837D01*
X019940Y013978D01*
X019940Y014132D01*
X019881Y014273D01*
X019773Y014381D01*
X019632Y014440D01*
X019478Y014440D01*
X019337Y014381D01*
X019229Y014273D01*
X019170Y014132D01*
X019170Y013978D01*
X019229Y013837D01*
X019265Y013801D01*
X019265Y013665D01*
X019164Y013665D01*
X019030Y013530D01*
X019030Y013470D01*
X018110Y013470D01*
X018155Y013515D01*
X018164Y013506D01*
X018206Y013482D01*
X018251Y013470D01*
X018502Y013470D01*
X018502Y013977D01*
X018638Y013977D01*
X018638Y014113D01*
X018502Y014113D01*
X018502Y014620D01*
X018251Y014620D01*
X018206Y014608D01*
X018164Y014584D01*
X018155Y014575D01*
X018060Y014670D01*
X017280Y014670D01*
X017220Y014610D01*
X017160Y014670D01*
X016940Y014670D01*
X016809Y014801D01*
X016703Y014845D01*
X013338Y014845D01*
X013222Y014961D01*
X012638Y014961D01*
X012536Y014859D01*
X012469Y014926D01*
X012363Y014970D01*
X012064Y014970D01*
X012064Y014995D01*
X012064Y015020D01*
X014490Y015020D01*
X014502Y015015D01*
X015176Y015015D01*
X015212Y014979D01*
X015353Y014920D01*
X015507Y014920D01*
X015648Y014979D01*
X015756Y015087D01*
X015815Y015228D01*
X015815Y015240D01*
X015951Y015240D01*
X016093Y015298D01*
X016201Y015407D01*
X016260Y015548D01*
X016260Y015650D01*
X016541Y015650D01*
X016587Y015604D01*
X016728Y015545D01*
X016882Y015545D01*
X017023Y015604D01*
X017131Y015712D01*
X017190Y015853D01*
X017190Y016007D01*
X017131Y016148D01*
X017023Y016256D01*
X017002Y016265D01*
X017051Y016265D01*
X017087Y016229D01*
X017228Y016170D01*
X017382Y016170D01*
X017523Y016229D01*
X017631Y016337D01*
X017690Y016478D01*
X017690Y016632D01*
X017631Y016773D01*
X017523Y016881D01*
X017418Y016925D01*
X017440Y016978D01*
X017440Y017132D01*
X017381Y017273D01*
X017273Y017381D01*
X017132Y017440D01*
X017013Y017440D01*
X017066Y017493D01*
X017066Y017499D01*
X017087Y017479D01*
X017228Y017420D01*
X017382Y017420D01*
X017523Y017479D01*
X017631Y017587D01*
X017690Y017728D01*
X017690Y017882D01*
X017631Y018023D01*
X017523Y018131D01*
X017382Y018190D01*
X017228Y018190D01*
X017087Y018131D01*
X017066Y018111D01*
X017066Y018117D01*
X017013Y018170D01*
X017132Y018170D01*
X017273Y018229D01*
X017381Y018337D01*
X017440Y018478D01*
X017440Y018632D01*
X017381Y018773D01*
X017273Y018881D01*
X017132Y018940D01*
X016993Y018940D01*
X016932Y019002D01*
X016348Y019002D01*
X016305Y018959D01*
X016262Y019002D01*
X015678Y019002D01*
X015544Y018867D01*
X015544Y018845D01*
X015247Y018845D01*
X015141Y018801D01*
X015059Y018719D01*
X014685Y018345D01*
X014631Y018345D01*
X014707Y018528D01*
X014707Y019332D01*
X014627Y019525D01*
X014478Y019673D01*
X014285Y019754D01*
X014075Y019754D01*
X013882Y019673D01*
X013733Y019525D01*
X013680Y019396D01*
X013627Y019525D01*
X013478Y019673D01*
X013285Y019754D01*
X013075Y019754D01*
X012882Y019673D01*
X012733Y019525D01*
X012680Y019396D01*
X012627Y019525D01*
X012478Y019673D01*
X012285Y019754D01*
X012075Y019754D01*
X011882Y019673D01*
X011733Y019525D01*
X011653Y019332D01*
X011653Y019288D01*
X011645Y019339D01*
X011622Y019410D01*
X011588Y019477D01*
X011544Y019537D01*
X011491Y019591D01*
X011430Y019635D01*
X011363Y019669D01*
X011292Y019692D01*
X011218Y019704D01*
X011198Y019704D01*
X011198Y018948D01*
X011162Y018948D01*
X011162Y019704D01*
X011142Y019704D01*
X011068Y019692D01*
X010997Y019669D01*
X010930Y019635D01*
X010869Y019591D01*
X010816Y019537D01*
X010772Y019477D01*
X010738Y019410D01*
X010715Y019339D01*
X010707Y019288D01*
X010707Y019332D01*
X010627Y019525D01*
X010478Y019673D01*
X010470Y019677D01*
X010470Y019810D01*
X010550Y019890D01*
X016435Y019890D01*
X017144Y019181D01*
X017225Y019100D01*
X017332Y019055D01*
X018233Y019055D01*
X018233Y019053D01*
X018368Y018919D01*
X018992Y018919D01*
X019069Y018996D01*
X019087Y018979D01*
X019228Y018920D01*
X019382Y018920D01*
X019523Y018979D01*
X019631Y019087D01*
X019690Y019228D01*
X019690Y019382D01*
X019631Y019523D01*
X019523Y019631D01*
X019382Y019690D01*
X019228Y019690D01*
X019119Y019645D01*
X019084Y019680D01*
X019127Y019723D01*
X019127Y020307D01*
X019127Y020151D02*
X023751Y020151D01*
X023702Y020102D02*
X023837Y020237D01*
X024736Y020237D01*
X024871Y020102D01*
X024871Y019557D01*
X024736Y019422D01*
X023837Y019422D01*
X023702Y019557D01*
X023702Y020102D01*
X023702Y019993D02*
X022691Y019993D01*
X022691Y019992D02*
X022557Y020127D01*
X021973Y020127D01*
X021892Y020046D01*
X021862Y020064D01*
X021816Y020077D01*
X021614Y020077D01*
X021614Y019698D01*
X021577Y019698D01*
X021577Y019662D01*
X021219Y019662D01*
X021219Y019440D01*
X021231Y019394D01*
X021254Y019353D01*
X021288Y019319D01*
X021329Y019296D01*
X021375Y019283D01*
X021577Y019283D01*
X021577Y019662D01*
X021614Y019662D01*
X021614Y019283D01*
X021816Y019283D01*
X021862Y019296D01*
X021892Y019314D01*
X021963Y019242D01*
X021930Y019209D01*
X021887Y019252D01*
X021303Y019252D01*
X021169Y019117D01*
X021169Y019095D01*
X020622Y019095D01*
X020516Y019051D01*
X020391Y018926D01*
X020309Y018844D01*
X020265Y018738D01*
X020265Y018434D01*
X020229Y018398D01*
X020170Y018257D01*
X020170Y018103D01*
X020229Y017962D01*
X020337Y017854D01*
X020454Y017805D01*
X020337Y017756D01*
X020229Y017648D01*
X020170Y017507D01*
X020170Y017353D01*
X020229Y017212D01*
X020265Y017176D01*
X020265Y017122D01*
X020309Y017016D01*
X020391Y016934D01*
X020516Y016809D01*
X020622Y016765D01*
X021169Y016765D01*
X021169Y016743D01*
X021267Y016645D01*
X021235Y016612D01*
X021211Y016571D01*
X021199Y016526D01*
X021199Y016323D01*
X021577Y016323D01*
X021577Y016287D01*
X021199Y016287D01*
X021199Y016084D01*
X021211Y016039D01*
X021235Y015998D01*
X021268Y015964D01*
X021309Y015940D01*
X021324Y015936D01*
X021288Y015916D01*
X021254Y015882D01*
X021231Y015841D01*
X021219Y015795D01*
X021219Y015573D01*
X021577Y015573D01*
X021577Y015537D01*
X021219Y015537D01*
X021219Y015315D01*
X021231Y015269D01*
X021254Y015228D01*
X021267Y015215D01*
X021169Y015117D01*
X021169Y015095D01*
X020845Y015095D01*
X020845Y015676D01*
X020881Y015712D01*
X020940Y015853D01*
X020940Y016007D01*
X020881Y016148D01*
X020773Y016256D01*
X020632Y016315D01*
X020478Y016315D01*
X020337Y016256D01*
X020229Y016148D01*
X020170Y016007D01*
X020170Y015853D01*
X020229Y015712D01*
X020265Y015676D01*
X020265Y014872D01*
X020309Y014766D01*
X020434Y014641D01*
X020434Y014641D01*
X020516Y014559D01*
X020622Y014515D01*
X021169Y014515D01*
X021169Y014493D01*
X021303Y014358D01*
X021887Y014358D01*
X021930Y014401D01*
X021973Y014358D01*
X022557Y014358D01*
X022691Y014493D01*
X022691Y014515D01*
X022738Y014515D01*
X022844Y014559D01*
X022903Y014618D01*
X023720Y014618D01*
X023837Y014501D01*
X024736Y014501D01*
X024871Y014636D01*
X024871Y015181D01*
X024736Y015316D01*
X023837Y015316D01*
X023720Y015198D01*
X022726Y015198D01*
X022644Y015164D01*
X022628Y015180D01*
X022691Y015243D01*
X022691Y015867D01*
X022638Y015920D01*
X022655Y015920D01*
X022928Y015647D01*
X023035Y015603D01*
X023720Y015603D01*
X023837Y015485D01*
X024736Y015485D01*
X024871Y015620D01*
X024871Y016165D01*
X024799Y016237D01*
X024871Y016309D01*
X024871Y016854D01*
X024805Y016920D01*
X024808Y016925D01*
X024821Y016971D01*
X024821Y017164D01*
X024295Y017164D01*
X024295Y017181D01*
X024821Y017181D01*
X024821Y017373D01*
X024808Y017419D01*
X024785Y017460D01*
X024763Y017481D01*
X024871Y017589D01*
X024871Y018134D01*
X024736Y018268D01*
X023837Y018268D01*
X023720Y018151D01*
X023372Y018151D01*
X023266Y018107D01*
X022609Y017450D01*
X022566Y017492D01*
X022691Y017618D01*
X022691Y018242D01*
X022566Y018368D01*
X022691Y018493D01*
X022691Y018555D01*
X023720Y018555D01*
X023837Y018438D01*
X024736Y018438D01*
X024871Y018573D01*
X024871Y019118D01*
X024736Y019253D01*
X023837Y019253D01*
X023720Y019135D01*
X022673Y019135D01*
X022566Y019242D01*
X022691Y019368D01*
X022691Y019992D01*
X022691Y019834D02*
X023702Y019834D01*
X023702Y019676D02*
X022691Y019676D01*
X022691Y019517D02*
X023742Y019517D01*
X023784Y019200D02*
X022608Y019200D01*
X022682Y019359D02*
X034700Y019359D01*
X034700Y019517D02*
X024830Y019517D01*
X024871Y019676D02*
X034700Y019676D01*
X034700Y019834D02*
X024871Y019834D01*
X024871Y019993D02*
X034700Y019993D01*
X034700Y020151D02*
X034143Y020151D01*
X034392Y020310D02*
X034700Y020310D01*
X034700Y020468D02*
X034532Y020468D01*
X034598Y020627D02*
X034700Y020627D01*
X034700Y020785D02*
X034638Y020785D01*
X034638Y020944D02*
X034700Y020944D01*
X034700Y021102D02*
X034611Y021102D01*
X034546Y021261D02*
X034700Y021261D01*
X034700Y021419D02*
X034425Y021419D01*
X034223Y021578D02*
X034700Y021578D01*
X034700Y021736D02*
X033128Y021736D01*
X033125Y021578D02*
X033484Y021578D01*
X032612Y021578D02*
X032496Y021578D01*
X032496Y021736D02*
X032612Y021736D01*
X032612Y022212D02*
X032496Y022212D01*
X031987Y022212D02*
X022619Y022212D01*
X022871Y022053D02*
X031980Y022053D01*
X033563Y020151D02*
X024822Y020151D01*
X024788Y019200D02*
X034700Y019200D01*
X034700Y019042D02*
X024871Y019042D01*
X024871Y018883D02*
X034700Y018883D01*
X034700Y018725D02*
X024871Y018725D01*
X024864Y018566D02*
X034700Y018566D01*
X034700Y018408D02*
X022606Y018408D01*
X022684Y018249D02*
X023817Y018249D01*
X023249Y018091D02*
X022691Y018091D01*
X022691Y017932D02*
X023091Y017932D01*
X022932Y017774D02*
X022691Y017774D01*
X022688Y017615D02*
X022774Y017615D01*
X022615Y017457D02*
X022602Y017457D01*
X023119Y017140D02*
X023752Y017140D01*
X023752Y017164D02*
X023752Y016971D01*
X023764Y016925D01*
X023768Y016920D01*
X023702Y016854D01*
X023702Y016309D01*
X023774Y016237D01*
X023720Y016183D01*
X023213Y016183D01*
X023065Y016330D01*
X023065Y016382D01*
X023006Y016523D01*
X022898Y016631D01*
X022757Y016690D01*
X022638Y016690D01*
X022691Y016743D01*
X022691Y016769D01*
X022788Y016809D01*
X023550Y017571D01*
X023720Y017571D01*
X023809Y017481D01*
X023788Y017460D01*
X023764Y017419D01*
X023752Y017373D01*
X023752Y017181D01*
X024278Y017181D01*
X024278Y017164D01*
X023752Y017164D01*
X023752Y017298D02*
X023277Y017298D01*
X023436Y017457D02*
X023786Y017457D01*
X023752Y016981D02*
X022960Y016981D01*
X022802Y016823D02*
X023702Y016823D01*
X023702Y016664D02*
X022819Y016664D01*
X023014Y016506D02*
X023702Y016506D01*
X023702Y016347D02*
X023065Y016347D01*
X023207Y016189D02*
X023725Y016189D01*
X023768Y015555D02*
X022691Y015555D01*
X022691Y015713D02*
X022862Y015713D01*
X022703Y015872D02*
X022687Y015872D01*
X022691Y015396D02*
X034700Y015396D01*
X034700Y015238D02*
X024814Y015238D01*
X024871Y015079D02*
X034700Y015079D01*
X034700Y014921D02*
X024871Y014921D01*
X024871Y014762D02*
X034700Y014762D01*
X034700Y014604D02*
X024838Y014604D01*
X024736Y014331D02*
X023837Y014331D01*
X023720Y014214D01*
X021565Y014214D01*
X021523Y014256D01*
X021382Y014315D01*
X021228Y014315D01*
X021087Y014256D01*
X020979Y014148D01*
X020920Y014007D01*
X020920Y013853D01*
X020979Y013712D01*
X021087Y013604D01*
X021228Y013545D01*
X021382Y013545D01*
X021523Y013604D01*
X021554Y013634D01*
X023720Y013634D01*
X023837Y013517D01*
X024736Y013517D01*
X024871Y013652D01*
X024871Y014197D01*
X024736Y014331D01*
X024781Y014287D02*
X034700Y014287D01*
X034700Y014445D02*
X022643Y014445D01*
X022889Y014604D02*
X023734Y014604D01*
X023792Y014287D02*
X021450Y014287D01*
X021217Y014445D02*
X019045Y014445D01*
X019045Y014464D02*
X019033Y014509D01*
X019009Y014551D01*
X018976Y014584D01*
X018934Y014608D01*
X018889Y014620D01*
X018638Y014620D01*
X018638Y014113D01*
X019045Y014113D01*
X019045Y014464D01*
X018942Y014604D02*
X020471Y014604D01*
X020313Y014762D02*
X016848Y014762D01*
X016245Y014128D02*
X014026Y014128D01*
X014023Y014131D02*
X013882Y014190D01*
X013728Y014190D01*
X013587Y014131D01*
X013479Y014023D01*
X013420Y013882D01*
X013420Y013728D01*
X013437Y013687D01*
X013437Y013077D01*
X013572Y012942D01*
X014038Y012942D01*
X014173Y013077D01*
X014173Y013687D01*
X014190Y013728D01*
X014190Y013882D01*
X014131Y014023D01*
X014023Y014131D01*
X014154Y013970D02*
X016245Y013970D01*
X016245Y013811D02*
X014190Y013811D01*
X014173Y013653D02*
X015402Y013653D01*
X015280Y013494D02*
X014173Y013494D01*
X014173Y013336D02*
X015280Y013336D01*
X015280Y013177D02*
X014663Y013177D01*
X014447Y013177D02*
X014173Y013177D01*
X014227Y013019D02*
X014114Y013019D01*
X014170Y012860D02*
X013440Y012860D01*
X013429Y012702D02*
X014181Y012702D01*
X014265Y012543D02*
X013345Y012543D01*
X013345Y012385D02*
X013539Y012385D01*
X013437Y012226D02*
X013345Y012226D01*
X013345Y012068D02*
X013437Y012068D01*
X013437Y011909D02*
X013345Y011909D01*
X013345Y011751D02*
X013437Y011751D01*
X014145Y011592D02*
X014265Y011592D01*
X014265Y011751D02*
X014173Y011751D01*
X014173Y011909D02*
X014265Y011909D01*
X014265Y012068D02*
X014173Y012068D01*
X014173Y012226D02*
X014265Y012226D01*
X014265Y012385D02*
X014071Y012385D01*
X014845Y012385D02*
X015757Y012385D01*
X015853Y012385D02*
X019507Y012385D01*
X019603Y012385D02*
X023702Y012385D01*
X023702Y012543D02*
X020030Y012543D01*
X020030Y012702D02*
X020777Y012702D01*
X020712Y012729D02*
X020853Y012670D01*
X021007Y012670D01*
X021034Y012681D01*
X023720Y012681D01*
X023764Y012637D01*
X023702Y012574D01*
X023702Y012030D01*
X023837Y011895D01*
X024736Y011895D01*
X024871Y012030D01*
X024871Y012574D01*
X024808Y012637D01*
X024871Y012699D01*
X024871Y013244D01*
X024736Y013379D01*
X023837Y013379D01*
X023720Y013261D01*
X021261Y013261D01*
X021256Y013273D01*
X021148Y013381D01*
X021007Y013440D01*
X020853Y013440D01*
X020712Y013381D01*
X020604Y013273D01*
X020545Y013132D01*
X020545Y012978D01*
X020604Y012837D01*
X020712Y012729D01*
X020594Y012860D02*
X020080Y012860D01*
X020080Y013019D02*
X020545Y013019D01*
X020564Y013177D02*
X020080Y013177D01*
X020080Y013336D02*
X020666Y013336D01*
X021194Y013336D02*
X023794Y013336D01*
X024779Y013336D02*
X034700Y013336D01*
X034700Y013494D02*
X020080Y013494D01*
X019958Y013653D02*
X021038Y013653D01*
X020938Y013811D02*
X019855Y013811D01*
X019936Y013970D02*
X020920Y013970D01*
X020970Y014128D02*
X019940Y014128D01*
X019868Y014287D02*
X021160Y014287D01*
X020265Y014921D02*
X015508Y014921D01*
X015352Y014921D02*
X013263Y014921D01*
X012597Y014921D02*
X012475Y014921D01*
X012064Y014995D02*
X011992Y014995D01*
X011992Y014995D01*
X011992Y014995D01*
X012064Y014995D01*
X012114Y014287D02*
X012320Y014287D01*
X012114Y014128D02*
X012565Y014128D01*
X012553Y013970D02*
X012114Y013970D01*
X012114Y013811D02*
X012553Y013811D01*
X012553Y013827D02*
X012553Y013605D01*
X012565Y013559D01*
X012589Y013518D01*
X012623Y013485D01*
X012664Y013461D01*
X012709Y013449D01*
X012912Y013449D01*
X012912Y013827D01*
X012553Y013827D01*
X012553Y013653D02*
X012114Y013653D01*
X012114Y013494D02*
X012613Y013494D01*
X012912Y013494D02*
X012948Y013494D01*
X012948Y013653D02*
X012912Y013653D01*
X012912Y013811D02*
X012948Y013811D01*
X013307Y013811D02*
X013420Y013811D01*
X013437Y013653D02*
X013307Y013653D01*
X013247Y013494D02*
X013437Y013494D01*
X013437Y013336D02*
X012114Y013336D01*
X012114Y013177D02*
X012947Y013177D01*
X013163Y013177D02*
X013437Y013177D01*
X013383Y013019D02*
X013496Y013019D01*
X012727Y013019D02*
X012114Y013019D01*
X012062Y012860D02*
X012670Y012860D01*
X012681Y012702D02*
X011208Y012702D01*
X011208Y012543D02*
X012765Y012543D01*
X012765Y012385D02*
X011208Y012385D01*
X011208Y012226D02*
X012765Y012226D01*
X012765Y012068D02*
X011208Y012068D01*
X009330Y011909D02*
X009280Y011909D01*
X009305Y011921D02*
X009305Y011993D01*
X009305Y011993D01*
X009305Y011993D01*
X009305Y011921D01*
X009280Y011751D02*
X009330Y011751D01*
X009330Y011592D02*
X009280Y011592D01*
X009280Y011434D02*
X009330Y011434D01*
X009330Y011275D02*
X009267Y011275D01*
X009330Y011117D02*
X009152Y011117D01*
X008993Y010958D02*
X009330Y010958D01*
X009330Y010800D02*
X008835Y010800D01*
X008676Y010641D02*
X009330Y010641D01*
X009330Y010483D02*
X008518Y010483D01*
X008022Y010324D02*
X009330Y010324D01*
X009330Y010166D02*
X006549Y010166D01*
X006684Y009920D02*
X006643Y009896D01*
X006610Y009862D01*
X006586Y009821D01*
X006574Y009776D01*
X006574Y009573D01*
X006952Y009573D01*
X006952Y009932D01*
X006730Y009932D01*
X006684Y009920D01*
X006602Y009849D02*
X003519Y009849D01*
X003610Y009690D02*
X006574Y009690D01*
X006574Y009532D02*
X003671Y009532D01*
X003713Y009373D02*
X006574Y009373D01*
X006643Y009215D02*
X003724Y009215D01*
X003724Y009056D02*
X008399Y009056D01*
X008375Y009215D02*
X008038Y009215D01*
X006989Y009215D02*
X006952Y009215D01*
X006952Y009373D02*
X006989Y009373D01*
X006989Y009532D02*
X006952Y009532D01*
X006952Y009690D02*
X006989Y009690D01*
X006989Y009849D02*
X006952Y009849D01*
X008085Y009849D02*
X008375Y009849D01*
X008375Y010007D02*
X003381Y010007D01*
X001729Y010007D02*
X000660Y010007D01*
X000660Y009849D02*
X001591Y009849D01*
X001500Y009690D02*
X000660Y009690D01*
X000660Y009532D02*
X001439Y009532D01*
X001397Y009373D02*
X000660Y009373D01*
X000660Y009215D02*
X001386Y009215D01*
X001386Y009056D02*
X000660Y009056D01*
X000660Y008898D02*
X001420Y008898D01*
X001463Y008739D02*
X000660Y008739D01*
X000660Y008581D02*
X001551Y008581D01*
X001660Y008422D02*
X000660Y008422D01*
X000660Y008264D02*
X001818Y008264D01*
X002079Y008105D02*
X000660Y008105D01*
X000660Y007947D02*
X003428Y007947D01*
X003428Y007908D02*
X003787Y007908D01*
X003787Y008286D01*
X003584Y008286D01*
X003539Y008274D01*
X003498Y008250D01*
X003464Y008217D01*
X003440Y008176D01*
X003428Y008130D01*
X003428Y007908D01*
X003428Y007871D02*
X003428Y007649D01*
X003440Y007604D01*
X003444Y007598D01*
X003378Y007532D01*
X003378Y006909D01*
X003513Y006774D01*
X003515Y006774D01*
X003515Y005932D01*
X003245Y005662D01*
X003245Y005198D01*
X003573Y004870D01*
X004037Y004870D01*
X004365Y005198D01*
X004365Y005662D01*
X004095Y005932D01*
X004095Y006774D01*
X004097Y006774D01*
X004232Y006909D01*
X004232Y007532D01*
X004166Y007598D01*
X004170Y007604D01*
X004182Y007649D01*
X004182Y007871D01*
X003823Y007871D01*
X003823Y007908D01*
X003787Y007908D01*
X003787Y007871D01*
X003428Y007871D01*
X003428Y007788D02*
X000660Y007788D01*
X000660Y007630D02*
X003433Y007630D01*
X003378Y007471D02*
X000660Y007471D01*
X000660Y007313D02*
X003378Y007313D01*
X003378Y007154D02*
X000660Y007154D01*
X000660Y006996D02*
X003378Y006996D01*
X003450Y006837D02*
X000660Y006837D01*
X000660Y006679D02*
X003515Y006679D01*
X003515Y006520D02*
X000660Y006520D01*
X000660Y006362D02*
X003515Y006362D01*
X003515Y006203D02*
X000660Y006203D01*
X000660Y006045D02*
X003515Y006045D01*
X003469Y005886D02*
X000660Y005886D01*
X000660Y005728D02*
X003311Y005728D01*
X003245Y005569D02*
X000660Y005569D01*
X000660Y005411D02*
X003245Y005411D01*
X003245Y005252D02*
X000660Y005252D01*
X000660Y005094D02*
X003350Y005094D01*
X003508Y004935D02*
X000660Y004935D01*
X000660Y004777D02*
X032610Y004777D01*
X032495Y004662D02*
X032823Y004990D01*
X033287Y004990D01*
X033555Y004722D01*
X033765Y004932D01*
X033765Y005928D01*
X033555Y006138D01*
X033287Y005870D01*
X032823Y005870D01*
X032495Y006198D01*
X032495Y006662D01*
X032823Y006990D01*
X033287Y006990D01*
X033555Y006722D01*
X033823Y006990D01*
X034287Y006990D01*
X034615Y006662D01*
X034615Y006198D01*
X034345Y005928D01*
X034345Y004932D01*
X034615Y004662D01*
X034615Y004198D01*
X034345Y003928D01*
X034345Y002932D01*
X034615Y002662D01*
X034615Y002198D01*
X034287Y001870D01*
X033823Y001870D01*
X033555Y002138D01*
X033287Y001870D01*
X032823Y001870D01*
X032495Y002198D01*
X032495Y002662D01*
X032823Y002990D01*
X033287Y002990D01*
X033555Y002722D01*
X033765Y002932D01*
X033765Y003928D01*
X033555Y004138D01*
X033287Y003870D01*
X032823Y003870D01*
X032495Y004198D01*
X032495Y004662D01*
X032495Y004618D02*
X000660Y004618D01*
X000660Y004460D02*
X032495Y004460D01*
X032495Y004301D02*
X000660Y004301D01*
X000660Y004143D02*
X032551Y004143D01*
X032709Y003984D02*
X000660Y003984D01*
X000660Y003826D02*
X003479Y003826D01*
X003594Y003940D02*
X003295Y003641D01*
X003295Y003460D01*
X003775Y003460D01*
X003775Y003940D01*
X003594Y003940D01*
X003775Y003826D02*
X003835Y003826D01*
X003835Y003940D02*
X004016Y003940D01*
X004315Y003641D01*
X004315Y003460D01*
X003835Y003460D01*
X003835Y003400D01*
X004315Y003400D01*
X004315Y003219D01*
X004016Y002920D01*
X003835Y002920D01*
X003835Y003400D01*
X003775Y003400D01*
X003775Y002920D01*
X003594Y002920D01*
X003295Y003219D01*
X003295Y003400D01*
X003775Y003400D01*
X003775Y003460D01*
X003835Y003460D01*
X003835Y003940D01*
X004131Y003826D02*
X005479Y003826D01*
X005594Y003940D02*
X005295Y003641D01*
X005295Y003460D01*
X005775Y003460D01*
X005775Y003940D01*
X005594Y003940D01*
X005775Y003826D02*
X005835Y003826D01*
X005835Y003940D02*
X006016Y003940D01*
X006315Y003641D01*
X006315Y003460D01*
X005835Y003460D01*
X005835Y003400D01*
X006315Y003400D01*
X006315Y003219D01*
X006016Y002920D01*
X005835Y002920D01*
X005835Y003400D01*
X005775Y003400D01*
X005775Y002920D01*
X005594Y002920D01*
X005295Y003219D01*
X005295Y003400D01*
X005775Y003400D01*
X005775Y003460D01*
X005835Y003460D01*
X005835Y003940D01*
X006131Y003826D02*
X008604Y003826D01*
X008719Y003940D02*
X008420Y003641D01*
X008420Y003460D01*
X008900Y003460D01*
X008900Y003940D01*
X008719Y003940D01*
X008900Y003826D02*
X008960Y003826D01*
X008960Y003940D02*
X009141Y003940D01*
X009440Y003641D01*
X009440Y003460D01*
X008960Y003460D01*
X008960Y003400D01*
X009440Y003400D01*
X009440Y003219D01*
X009141Y002920D01*
X008960Y002920D01*
X008960Y003400D01*
X008900Y003400D01*
X008900Y002920D01*
X008719Y002920D01*
X008420Y003219D01*
X008420Y003400D01*
X008900Y003400D01*
X008900Y003460D01*
X008960Y003460D01*
X008960Y003940D01*
X009256Y003826D02*
X010604Y003826D01*
X010719Y003940D02*
X010420Y003641D01*
X010420Y003460D01*
X010900Y003460D01*
X010900Y003940D01*
X010719Y003940D01*
X010900Y003826D02*
X010960Y003826D01*
X010960Y003940D02*
X011141Y003940D01*
X011440Y003641D01*
X011440Y003460D01*
X010960Y003460D01*
X010960Y003400D01*
X011440Y003400D01*
X011440Y003219D01*
X011141Y002920D01*
X010960Y002920D01*
X010960Y003400D01*
X010900Y003400D01*
X010900Y002920D01*
X010719Y002920D01*
X010420Y003219D01*
X010420Y003400D01*
X010900Y003400D01*
X010900Y003460D01*
X010960Y003460D01*
X010960Y003940D01*
X011256Y003826D02*
X013729Y003826D01*
X013844Y003940D02*
X013545Y003641D01*
X013545Y003460D01*
X014025Y003460D01*
X014025Y003940D01*
X013844Y003940D01*
X014025Y003826D02*
X014085Y003826D01*
X014085Y003940D02*
X014266Y003940D01*
X014565Y003641D01*
X014565Y003460D01*
X014085Y003460D01*
X014085Y003400D01*
X014565Y003400D01*
X014565Y003219D01*
X014266Y002920D01*
X014085Y002920D01*
X014085Y003400D01*
X014025Y003400D01*
X014025Y002920D01*
X013844Y002920D01*
X013545Y003219D01*
X013545Y003400D01*
X014025Y003400D01*
X014025Y003460D01*
X014085Y003460D01*
X014085Y003940D01*
X014381Y003826D02*
X015729Y003826D01*
X015844Y003940D02*
X015545Y003641D01*
X015545Y003460D01*
X016025Y003460D01*
X016025Y003940D01*
X015844Y003940D01*
X016025Y003826D02*
X016085Y003826D01*
X016085Y003940D02*
X016266Y003940D01*
X016565Y003641D01*
X016565Y003460D01*
X016085Y003460D01*
X016085Y003400D01*
X016565Y003400D01*
X016565Y003219D01*
X016266Y002920D01*
X016085Y002920D01*
X016085Y003400D01*
X016025Y003400D01*
X016025Y002920D01*
X015844Y002920D01*
X015545Y003219D01*
X015545Y003400D01*
X016025Y003400D01*
X016025Y003460D01*
X016085Y003460D01*
X016085Y003940D01*
X016381Y003826D02*
X018854Y003826D01*
X018969Y003940D02*
X018670Y003641D01*
X018670Y003460D01*
X019150Y003460D01*
X019150Y003940D01*
X018969Y003940D01*
X019150Y003826D02*
X019210Y003826D01*
X019210Y003940D02*
X019391Y003940D01*
X019690Y003641D01*
X019690Y003460D01*
X019210Y003460D01*
X019210Y003400D01*
X019690Y003400D01*
X019690Y003219D01*
X019391Y002920D01*
X019210Y002920D01*
X019210Y003400D01*
X019150Y003400D01*
X019150Y002920D01*
X018969Y002920D01*
X018670Y003219D01*
X018670Y003400D01*
X019150Y003400D01*
X019150Y003460D01*
X019210Y003460D01*
X019210Y003940D01*
X019506Y003826D02*
X020854Y003826D01*
X020969Y003940D02*
X020670Y003641D01*
X020670Y003460D01*
X021150Y003460D01*
X021150Y003940D01*
X020969Y003940D01*
X021150Y003826D02*
X021210Y003826D01*
X021210Y003940D02*
X021391Y003940D01*
X021690Y003641D01*
X021690Y003460D01*
X021210Y003460D01*
X021210Y003400D01*
X021690Y003400D01*
X021690Y003219D01*
X021391Y002920D01*
X021210Y002920D01*
X021210Y003400D01*
X021150Y003400D01*
X021150Y002920D01*
X020969Y002920D01*
X020670Y003219D01*
X020670Y003400D01*
X021150Y003400D01*
X021150Y003460D01*
X021210Y003460D01*
X021210Y003940D01*
X021506Y003826D02*
X028479Y003826D01*
X028594Y003940D02*
X028295Y003641D01*
X028295Y003460D01*
X028775Y003460D01*
X028775Y003940D01*
X028594Y003940D01*
X028775Y003826D02*
X028835Y003826D01*
X028835Y003940D02*
X029016Y003940D01*
X029315Y003641D01*
X029315Y003460D01*
X028835Y003460D01*
X028835Y003400D01*
X029315Y003400D01*
X029315Y003219D01*
X029016Y002920D01*
X028835Y002920D01*
X028835Y003400D01*
X028775Y003400D01*
X028775Y002920D01*
X028594Y002920D01*
X028295Y003219D01*
X028295Y003400D01*
X028775Y003400D01*
X028775Y003460D01*
X028835Y003460D01*
X028835Y003940D01*
X029131Y003826D02*
X030479Y003826D01*
X030594Y003940D02*
X030295Y003641D01*
X030295Y003460D01*
X030775Y003460D01*
X030775Y003940D01*
X030594Y003940D01*
X030775Y003826D02*
X030835Y003826D01*
X030835Y003940D02*
X031016Y003940D01*
X031315Y003641D01*
X031315Y003460D01*
X030835Y003460D01*
X030835Y003400D01*
X031315Y003400D01*
X031315Y003219D01*
X031016Y002920D01*
X030835Y002920D01*
X030835Y003400D01*
X030775Y003400D01*
X030775Y002920D01*
X030594Y002920D01*
X030295Y003219D01*
X030295Y003400D01*
X030775Y003400D01*
X030775Y003460D01*
X030835Y003460D01*
X030835Y003940D01*
X031131Y003826D02*
X033765Y003826D01*
X033765Y003667D02*
X031289Y003667D01*
X031315Y003509D02*
X033765Y003509D01*
X033765Y003350D02*
X031315Y003350D01*
X031288Y003192D02*
X033765Y003192D01*
X033765Y003033D02*
X031129Y003033D01*
X030835Y003033D02*
X030775Y003033D01*
X030775Y003192D02*
X030835Y003192D01*
X030835Y003350D02*
X030775Y003350D01*
X030775Y003509D02*
X030835Y003509D01*
X030835Y003667D02*
X030775Y003667D01*
X030321Y003667D02*
X029289Y003667D01*
X029315Y003509D02*
X030295Y003509D01*
X030295Y003350D02*
X029315Y003350D01*
X029288Y003192D02*
X030322Y003192D01*
X030481Y003033D02*
X029129Y003033D01*
X028835Y003033D02*
X028775Y003033D01*
X028775Y003192D02*
X028835Y003192D01*
X028835Y003350D02*
X028775Y003350D01*
X028775Y003509D02*
X028835Y003509D01*
X028835Y003667D02*
X028775Y003667D01*
X028321Y003667D02*
X026319Y003667D01*
X026342Y003651D02*
X026286Y003691D01*
X026224Y003723D01*
X026158Y003744D01*
X026090Y003755D01*
X026055Y003755D01*
X026055Y003055D01*
X026495Y003055D01*
X026495Y003350D01*
X028295Y003350D01*
X028295Y003509D02*
X026450Y003509D01*
X026463Y003484D02*
X026431Y003546D01*
X026391Y003602D01*
X026342Y003651D01*
X026463Y003484D02*
X026484Y003418D01*
X026495Y003350D01*
X026495Y003192D02*
X028322Y003192D01*
X028481Y003033D02*
X026495Y003033D01*
X026495Y003055D02*
X026055Y003055D01*
X026055Y003055D01*
X026055Y003055D01*
X026055Y002355D01*
X026090Y002355D01*
X026158Y002366D01*
X026224Y002387D01*
X026286Y002419D01*
X026342Y002459D01*
X026391Y002508D01*
X026431Y002564D01*
X026463Y002626D01*
X026484Y002692D01*
X026495Y002760D01*
X026495Y003055D01*
X026495Y002875D02*
X032708Y002875D01*
X032549Y002716D02*
X026488Y002716D01*
X026426Y002558D02*
X032495Y002558D01*
X032495Y002399D02*
X026247Y002399D01*
X026055Y002399D02*
X026055Y002399D01*
X026055Y002355D02*
X026055Y003055D01*
X026055Y003055D01*
X026055Y003055D01*
X025615Y003055D01*
X025615Y003350D01*
X025495Y003350D01*
X025484Y003418D01*
X025463Y003484D01*
X025431Y003546D01*
X025391Y003602D01*
X025342Y003651D01*
X025286Y003691D01*
X025224Y003723D01*
X025158Y003744D01*
X025090Y003755D01*
X025055Y003755D01*
X025055Y003055D01*
X025495Y003055D01*
X025495Y003350D01*
X025615Y003350D02*
X025626Y003418D01*
X025647Y003484D01*
X025679Y003546D01*
X025719Y003602D01*
X025768Y003651D01*
X025824Y003691D01*
X025886Y003723D01*
X025952Y003744D01*
X026020Y003755D01*
X026055Y003755D01*
X026055Y003055D01*
X025615Y003055D01*
X025615Y002760D01*
X025626Y002692D01*
X025647Y002626D01*
X025679Y002564D01*
X025719Y002508D01*
X025768Y002459D01*
X025824Y002419D01*
X025886Y002387D01*
X025952Y002366D01*
X026020Y002355D01*
X026055Y002355D01*
X025863Y002399D02*
X025247Y002399D01*
X025224Y002387D02*
X025286Y002419D01*
X025342Y002459D01*
X025391Y002508D01*
X025431Y002564D01*
X025463Y002626D01*
X025484Y002692D01*
X025495Y002760D01*
X025495Y003055D01*
X025055Y003055D01*
X025055Y003055D01*
X025055Y003055D01*
X025055Y002355D01*
X025090Y002355D01*
X025158Y002366D01*
X025224Y002387D01*
X025055Y002399D02*
X025055Y002399D01*
X025055Y002355D02*
X025055Y003055D01*
X025055Y003055D01*
X025055Y003055D01*
X024615Y003055D01*
X024615Y003350D01*
X024495Y003350D01*
X024484Y003418D01*
X024463Y003484D01*
X024431Y003546D01*
X024391Y003602D01*
X024342Y003651D01*
X024286Y003691D01*
X024224Y003723D01*
X024158Y003744D01*
X024090Y003755D01*
X024055Y003755D01*
X024055Y003055D01*
X024495Y003055D01*
X024495Y003350D01*
X024615Y003350D02*
X024626Y003418D01*
X024647Y003484D01*
X024679Y003546D01*
X024719Y003602D01*
X024768Y003651D01*
X024824Y003691D01*
X024886Y003723D01*
X024952Y003744D01*
X025020Y003755D01*
X025055Y003755D01*
X025055Y003055D01*
X024615Y003055D01*
X024615Y002760D01*
X024626Y002692D01*
X024647Y002626D01*
X024679Y002564D01*
X024719Y002508D01*
X024768Y002459D01*
X024824Y002419D01*
X024886Y002387D01*
X024952Y002366D01*
X025020Y002355D01*
X025055Y002355D01*
X024863Y002399D02*
X024247Y002399D01*
X024224Y002387D02*
X024286Y002419D01*
X024342Y002459D01*
X024391Y002508D01*
X024431Y002564D01*
X024463Y002626D01*
X024484Y002692D01*
X024495Y002760D01*
X024495Y003055D01*
X024055Y003055D01*
X024055Y003055D01*
X024055Y003055D01*
X024055Y002355D01*
X024090Y002355D01*
X024158Y002366D01*
X024224Y002387D01*
X024055Y002399D02*
X024055Y002399D01*
X024055Y002355D02*
X024055Y003055D01*
X024055Y003055D01*
X024055Y003055D01*
X023615Y003055D01*
X023615Y003350D01*
X021690Y003350D01*
X021690Y003509D02*
X023660Y003509D01*
X023647Y003484D02*
X023626Y003418D01*
X023615Y003350D01*
X023647Y003484D02*
X023679Y003546D01*
X023719Y003602D01*
X023768Y003651D01*
X023824Y003691D01*
X023886Y003723D01*
X023952Y003744D01*
X024020Y003755D01*
X024055Y003755D01*
X024055Y003055D01*
X023615Y003055D01*
X023615Y002760D01*
X023626Y002692D01*
X023647Y002626D01*
X023679Y002564D01*
X023719Y002508D01*
X023768Y002459D01*
X023824Y002419D01*
X023886Y002387D01*
X023952Y002366D01*
X024020Y002355D01*
X024055Y002355D01*
X023863Y002399D02*
X022840Y002399D01*
X022778Y002461D02*
X022421Y002609D01*
X022034Y002609D01*
X021677Y002461D01*
X021403Y002187D01*
X021255Y001830D01*
X021255Y001443D01*
X021403Y001086D01*
X021677Y000813D01*
X022034Y000665D01*
X022421Y000665D01*
X022778Y000813D01*
X023051Y001086D01*
X023199Y001443D01*
X023199Y001830D01*
X023051Y002187D01*
X022778Y002461D01*
X022544Y002558D02*
X023684Y002558D01*
X023622Y002716D02*
X000660Y002716D01*
X000660Y002558D02*
X002225Y002558D01*
X002349Y002609D02*
X001992Y002461D01*
X001718Y002187D01*
X001570Y001830D01*
X001570Y001443D01*
X001718Y001086D01*
X001992Y000813D01*
X002349Y000665D01*
X002736Y000665D01*
X003093Y000813D01*
X003366Y001086D01*
X003514Y001443D01*
X003514Y001830D01*
X003366Y002187D01*
X003093Y002461D01*
X002736Y002609D01*
X002349Y002609D01*
X002859Y002558D02*
X021910Y002558D01*
X021615Y002399D02*
X003155Y002399D01*
X003313Y002241D02*
X021456Y002241D01*
X021359Y002082D02*
X003410Y002082D01*
X003476Y001924D02*
X021294Y001924D01*
X021255Y001765D02*
X003514Y001765D01*
X003514Y001607D02*
X021255Y001607D01*
X021255Y001448D02*
X003514Y001448D01*
X003451Y001290D02*
X021319Y001290D01*
X021384Y001131D02*
X003385Y001131D01*
X003253Y000973D02*
X021517Y000973D01*
X021675Y000814D02*
X003094Y000814D01*
X001990Y000814D02*
X000660Y000814D01*
X000660Y000973D02*
X001832Y000973D01*
X001699Y001131D02*
X000660Y001131D01*
X000660Y001290D02*
X001634Y001290D01*
X001570Y001448D02*
X000660Y001448D01*
X000660Y001607D02*
X001570Y001607D01*
X001570Y001765D02*
X000660Y001765D01*
X000660Y001924D02*
X001609Y001924D01*
X001674Y002082D02*
X000660Y002082D01*
X000660Y002241D02*
X001771Y002241D01*
X001930Y002399D02*
X000660Y002399D01*
X000660Y002875D02*
X023615Y002875D01*
X023615Y003033D02*
X021504Y003033D01*
X021663Y003192D02*
X023615Y003192D01*
X024055Y003192D02*
X024055Y003192D01*
X024055Y003350D02*
X024055Y003350D01*
X024055Y003509D02*
X024055Y003509D01*
X024055Y003667D02*
X024055Y003667D01*
X023791Y003667D02*
X021664Y003667D01*
X021210Y003667D02*
X021150Y003667D01*
X021150Y003509D02*
X021210Y003509D01*
X021210Y003350D02*
X021150Y003350D01*
X021150Y003192D02*
X021210Y003192D01*
X021210Y003033D02*
X021150Y003033D01*
X020856Y003033D02*
X019504Y003033D01*
X019663Y003192D02*
X020697Y003192D01*
X020670Y003350D02*
X019690Y003350D01*
X019690Y003509D02*
X020670Y003509D01*
X020696Y003667D02*
X019664Y003667D01*
X019210Y003667D02*
X019150Y003667D01*
X019150Y003509D02*
X019210Y003509D01*
X019210Y003350D02*
X019150Y003350D01*
X019150Y003192D02*
X019210Y003192D01*
X019210Y003033D02*
X019150Y003033D01*
X018856Y003033D02*
X016379Y003033D01*
X016538Y003192D02*
X018697Y003192D01*
X018670Y003350D02*
X016565Y003350D01*
X016565Y003509D02*
X018670Y003509D01*
X018696Y003667D02*
X016539Y003667D01*
X016085Y003667D02*
X016025Y003667D01*
X016025Y003509D02*
X016085Y003509D01*
X016085Y003350D02*
X016025Y003350D01*
X016025Y003192D02*
X016085Y003192D01*
X016085Y003033D02*
X016025Y003033D01*
X015731Y003033D02*
X014379Y003033D01*
X014538Y003192D02*
X015572Y003192D01*
X015545Y003350D02*
X014565Y003350D01*
X014565Y003509D02*
X015545Y003509D01*
X015571Y003667D02*
X014539Y003667D01*
X014085Y003667D02*
X014025Y003667D01*
X014025Y003509D02*
X014085Y003509D01*
X014085Y003350D02*
X014025Y003350D01*
X014025Y003192D02*
X014085Y003192D01*
X014085Y003033D02*
X014025Y003033D01*
X013731Y003033D02*
X011254Y003033D01*
X011413Y003192D02*
X013572Y003192D01*
X013545Y003350D02*
X011440Y003350D01*
X011440Y003509D02*
X013545Y003509D01*
X013571Y003667D02*
X011414Y003667D01*
X010960Y003667D02*
X010900Y003667D01*
X010900Y003509D02*
X010960Y003509D01*
X010960Y003350D02*
X010900Y003350D01*
X010900Y003192D02*
X010960Y003192D01*
X010960Y003033D02*
X010900Y003033D01*
X010606Y003033D02*
X009254Y003033D01*
X009413Y003192D02*
X010447Y003192D01*
X010420Y003350D02*
X009440Y003350D01*
X009440Y003509D02*
X010420Y003509D01*
X010446Y003667D02*
X009414Y003667D01*
X008960Y003667D02*
X008900Y003667D01*
X008900Y003509D02*
X008960Y003509D01*
X008960Y003350D02*
X008900Y003350D01*
X008900Y003192D02*
X008960Y003192D01*
X008960Y003033D02*
X008900Y003033D01*
X008606Y003033D02*
X006129Y003033D01*
X006288Y003192D02*
X008447Y003192D01*
X008420Y003350D02*
X006315Y003350D01*
X006315Y003509D02*
X008420Y003509D01*
X008446Y003667D02*
X006289Y003667D01*
X005835Y003667D02*
X005775Y003667D01*
X005775Y003509D02*
X005835Y003509D01*
X005835Y003350D02*
X005775Y003350D01*
X005775Y003192D02*
X005835Y003192D01*
X005835Y003033D02*
X005775Y003033D01*
X005481Y003033D02*
X004129Y003033D01*
X004288Y003192D02*
X005322Y003192D01*
X005295Y003350D02*
X004315Y003350D01*
X004315Y003509D02*
X005295Y003509D01*
X005321Y003667D02*
X004289Y003667D01*
X003835Y003667D02*
X003775Y003667D01*
X003775Y003509D02*
X003835Y003509D01*
X003835Y003350D02*
X003775Y003350D01*
X003775Y003192D02*
X003835Y003192D01*
X003835Y003033D02*
X003775Y003033D01*
X003481Y003033D02*
X000660Y003033D01*
X000660Y003192D02*
X003322Y003192D01*
X003295Y003350D02*
X000660Y003350D01*
X000660Y003509D02*
X003295Y003509D01*
X003321Y003667D02*
X000660Y003667D01*
X004102Y004935D02*
X005508Y004935D01*
X005573Y004870D02*
X006037Y004870D01*
X006365Y005198D01*
X006365Y005662D01*
X006037Y005990D01*
X005573Y005990D01*
X005245Y005662D01*
X005245Y005198D01*
X005573Y004870D01*
X005350Y005094D02*
X004260Y005094D01*
X004365Y005252D02*
X005245Y005252D01*
X005245Y005411D02*
X004365Y005411D01*
X004365Y005569D02*
X005245Y005569D01*
X005311Y005728D02*
X004299Y005728D01*
X004141Y005886D02*
X005469Y005886D01*
X006141Y005886D02*
X008594Y005886D01*
X008640Y005932D02*
X008370Y005662D01*
X008370Y005198D01*
X008698Y004870D01*
X009162Y004870D01*
X009490Y005198D01*
X009490Y005662D01*
X009220Y005932D01*
X009220Y006774D01*
X009222Y006774D01*
X009357Y006909D01*
X009357Y007532D01*
X009291Y007598D01*
X009295Y007604D01*
X009307Y007649D01*
X009307Y007871D01*
X008948Y007871D01*
X008948Y007908D01*
X008912Y007908D01*
X008912Y008286D01*
X008709Y008286D01*
X008664Y008274D01*
X008623Y008250D01*
X008589Y008217D01*
X008565Y008176D01*
X008553Y008130D01*
X008553Y007908D01*
X008912Y007908D01*
X008912Y007871D01*
X008553Y007871D01*
X008553Y007649D01*
X008565Y007604D01*
X008569Y007598D01*
X008503Y007532D01*
X008503Y006909D01*
X008638Y006774D01*
X008640Y006774D01*
X008640Y005932D01*
X008640Y006045D02*
X004095Y006045D01*
X004095Y006203D02*
X008640Y006203D01*
X008640Y006362D02*
X004095Y006362D01*
X004095Y006520D02*
X008640Y006520D01*
X008640Y006679D02*
X004095Y006679D01*
X004160Y006837D02*
X008575Y006837D01*
X008503Y006996D02*
X004232Y006996D01*
X004232Y007154D02*
X008503Y007154D01*
X008503Y007313D02*
X004232Y007313D01*
X004232Y007471D02*
X008503Y007471D01*
X008558Y007630D02*
X004177Y007630D01*
X004182Y007788D02*
X008553Y007788D01*
X008553Y007947D02*
X004182Y007947D01*
X004182Y007908D02*
X004182Y008130D01*
X004170Y008176D01*
X004146Y008217D01*
X004112Y008250D01*
X004071Y008274D01*
X004026Y008286D01*
X003823Y008286D01*
X003823Y007908D01*
X004182Y007908D01*
X004182Y008105D02*
X008553Y008105D01*
X008646Y008264D02*
X004089Y008264D01*
X003823Y008264D02*
X003787Y008264D01*
X003787Y008105D02*
X003823Y008105D01*
X003823Y007947D02*
X003787Y007947D01*
X003428Y008105D02*
X003031Y008105D01*
X003292Y008264D02*
X003521Y008264D01*
X003450Y008422D02*
X031160Y008422D01*
X031120Y008462D02*
X031337Y008245D01*
X031604Y008091D01*
X031901Y008011D01*
X032209Y008011D01*
X032506Y008091D01*
X032773Y008245D01*
X032990Y008462D01*
X033144Y008729D01*
X033224Y009026D01*
X033224Y009334D01*
X033144Y009631D01*
X032990Y009898D01*
X032773Y010115D01*
X032506Y010269D01*
X032209Y010349D01*
X031901Y010349D01*
X031604Y010269D01*
X031337Y010115D01*
X031120Y009898D01*
X030966Y009631D01*
X030886Y009334D01*
X030886Y009026D01*
X030966Y008729D01*
X031120Y008462D01*
X031051Y008581D02*
X003559Y008581D01*
X003647Y008739D02*
X030963Y008739D01*
X030920Y008898D02*
X003690Y008898D01*
X001561Y010166D02*
X000660Y010166D01*
X000660Y010324D02*
X001376Y010324D01*
X000908Y010800D02*
X000660Y010800D01*
X000660Y010958D02*
X000802Y010958D01*
X000755Y011117D02*
X000660Y011117D01*
X000660Y011275D02*
X000755Y011275D01*
X000815Y011434D02*
X000660Y011434D01*
X000660Y011592D02*
X000939Y011592D01*
X000957Y011751D02*
X000660Y011751D01*
X000660Y011909D02*
X000822Y011909D01*
X000756Y012068D02*
X000660Y012068D01*
X000660Y012226D02*
X000755Y012226D01*
X000794Y012385D02*
X000660Y012385D01*
X000660Y012543D02*
X000890Y012543D01*
X001023Y012702D02*
X000660Y012702D01*
X000660Y012860D02*
X000847Y012860D01*
X000777Y013019D02*
X000660Y013019D01*
X000660Y013177D02*
X000755Y013177D01*
X000774Y013336D02*
X000660Y013336D01*
X000660Y013494D02*
X000841Y013494D01*
X001009Y013653D02*
X000660Y013653D01*
X000660Y013811D02*
X002015Y013811D01*
X002015Y013970D02*
X000660Y013970D01*
X000660Y014128D02*
X002015Y014128D01*
X002015Y014287D02*
X000660Y014287D01*
X000660Y014445D02*
X002015Y014445D01*
X002015Y014604D02*
X000660Y014604D01*
X000660Y014762D02*
X002015Y014762D01*
X002015Y014921D02*
X000660Y014921D01*
X000660Y015079D02*
X002015Y015079D01*
X002015Y015238D02*
X000660Y015238D01*
X000660Y015396D02*
X002015Y015396D01*
X002015Y015555D02*
X000660Y015555D01*
X000660Y015713D02*
X002015Y015713D01*
X002015Y015872D02*
X000660Y015872D01*
X000660Y016030D02*
X002015Y016030D01*
X002015Y016189D02*
X000660Y016189D01*
X000660Y016347D02*
X002015Y016347D01*
X002015Y016506D02*
X000660Y016506D01*
X000660Y016664D02*
X002015Y016664D01*
X002015Y016823D02*
X000660Y016823D01*
X000660Y016981D02*
X001163Y016981D01*
X001178Y016969D02*
X001117Y017014D01*
X001064Y017067D01*
X001019Y017128D01*
X000985Y017196D01*
X000962Y017268D01*
X000950Y017342D01*
X000950Y017660D01*
X001410Y017660D01*
X001450Y017660D01*
X001450Y017700D01*
X001910Y017700D01*
X001910Y018018D01*
X001898Y018092D01*
X001875Y018164D01*
X001841Y018232D01*
X001796Y018293D01*
X001743Y018346D01*
X001682Y018391D01*
X001614Y018425D01*
X001542Y018448D01*
X001468Y018460D01*
X001450Y018460D01*
X001450Y017700D01*
X001410Y017700D01*
X001410Y018460D01*
X001392Y018460D01*
X001318Y018448D01*
X001246Y018425D01*
X001178Y018391D01*
X001117Y018346D01*
X001064Y018293D01*
X001019Y018232D01*
X000985Y018164D01*
X000962Y018092D01*
X000950Y018018D01*
X000950Y017700D01*
X001410Y017700D01*
X001410Y017660D01*
X001410Y016900D01*
X001392Y016900D01*
X001318Y016912D01*
X001246Y016935D01*
X001178Y016969D01*
X001410Y016981D02*
X001450Y016981D01*
X001450Y016900D02*
X001468Y016900D01*
X001542Y016912D01*
X001614Y016935D01*
X001682Y016969D01*
X001743Y017014D01*
X001796Y017067D01*
X001841Y017128D01*
X001875Y017196D01*
X001898Y017268D01*
X001910Y017342D01*
X001910Y017660D01*
X001450Y017660D01*
X001450Y016900D01*
X001450Y017140D02*
X001410Y017140D01*
X001410Y017298D02*
X001450Y017298D01*
X001450Y017457D02*
X001410Y017457D01*
X001410Y017615D02*
X001450Y017615D01*
X001450Y017774D02*
X001410Y017774D01*
X001410Y017932D02*
X001450Y017932D01*
X001450Y018091D02*
X001410Y018091D01*
X001410Y018249D02*
X001450Y018249D01*
X001450Y018408D02*
X001410Y018408D01*
X001212Y018408D02*
X000660Y018408D01*
X000660Y018566D02*
X002406Y018566D01*
X002564Y018725D02*
X000660Y018725D01*
X000660Y018883D02*
X002723Y018883D01*
X002881Y019042D02*
X000660Y019042D01*
X000660Y019200D02*
X001904Y019200D01*
X001702Y019359D02*
X000660Y019359D01*
X000660Y019517D02*
X001624Y019517D01*
X001600Y019676D02*
X000660Y019676D01*
X000660Y019834D02*
X001620Y019834D01*
X001693Y019993D02*
X000660Y019993D01*
X000660Y020151D02*
X001882Y020151D01*
X001992Y020498D02*
X002349Y020350D01*
X002736Y020350D01*
X003093Y020498D01*
X003366Y020771D01*
X003514Y021128D01*
X003514Y021515D01*
X003366Y021872D01*
X003093Y022146D01*
X002736Y022294D01*
X002349Y022294D01*
X001992Y022146D01*
X001718Y021872D01*
X001570Y021515D01*
X001570Y021128D01*
X001718Y020771D01*
X001992Y020498D01*
X002063Y020468D02*
X000660Y020468D01*
X000660Y020310D02*
X005414Y020310D01*
X005414Y020468D02*
X003021Y020468D01*
X003222Y020627D02*
X004505Y020627D01*
X004685Y020627D02*
X004722Y020627D01*
X004722Y020785D02*
X004685Y020785D01*
X004685Y020944D02*
X004722Y020944D01*
X004722Y021102D02*
X004685Y021102D01*
X004685Y021261D02*
X004722Y021261D01*
X004722Y021419D02*
X004685Y021419D01*
X004685Y021578D02*
X004722Y021578D01*
X004722Y021736D02*
X004685Y021736D01*
X004685Y021895D02*
X004722Y021895D01*
X004722Y022053D02*
X004685Y022053D01*
X004442Y022053D02*
X003186Y022053D01*
X003344Y021895D02*
X004291Y021895D01*
X004234Y021736D02*
X003423Y021736D01*
X003488Y021578D02*
X004227Y021578D01*
X004227Y021419D02*
X003514Y021419D01*
X003514Y021261D02*
X004227Y021261D01*
X004227Y021102D02*
X003503Y021102D01*
X003438Y020944D02*
X004240Y020944D01*
X004314Y020785D02*
X003372Y020785D01*
X002978Y020151D02*
X005414Y020151D01*
X005414Y019993D02*
X004941Y019993D01*
X004982Y019834D02*
X005414Y019834D01*
X005414Y019676D02*
X004982Y019676D01*
X004982Y019517D02*
X005414Y019517D01*
X005414Y019359D02*
X004982Y019359D01*
X005528Y018680D02*
X005635Y018725D01*
X007440Y018725D01*
X007440Y018883D02*
X005793Y018883D01*
X005716Y018806D02*
X005949Y019039D01*
X005994Y019146D01*
X005994Y020610D01*
X006002Y020614D01*
X006150Y020762D01*
X006204Y020891D01*
X006257Y020762D01*
X006405Y020614D01*
X006599Y020533D01*
X006808Y020533D01*
X007002Y020614D01*
X007150Y020762D01*
X007204Y020891D01*
X007257Y020762D01*
X007405Y020614D01*
X007440Y020599D01*
X007440Y017392D01*
X007402Y017354D01*
X007402Y016583D01*
X006970Y016583D01*
X006970Y017301D01*
X007006Y017337D01*
X007065Y017478D01*
X007065Y017632D01*
X007006Y017773D01*
X006898Y017881D01*
X006798Y017923D01*
X006756Y018023D01*
X006648Y018131D01*
X006548Y018173D01*
X006506Y018273D01*
X006398Y018381D01*
X006298Y018423D01*
X006256Y018523D01*
X006148Y018631D01*
X006007Y018690D01*
X005853Y018690D01*
X005712Y018631D01*
X005604Y018523D01*
X005545Y018382D01*
X005545Y018228D01*
X005604Y018087D01*
X005640Y018051D01*
X005640Y016161D01*
X005448Y016161D01*
X005448Y015783D01*
X005412Y015783D01*
X005412Y016161D01*
X005209Y016161D01*
X005164Y016149D01*
X005123Y016125D01*
X005089Y016092D01*
X005065Y016051D01*
X005053Y016005D01*
X005053Y015783D01*
X005412Y015783D01*
X005412Y015746D01*
X005053Y015746D01*
X005053Y015524D01*
X005065Y015479D01*
X005069Y015473D01*
X005003Y015407D01*
X005003Y015285D01*
X002595Y015285D01*
X002595Y017935D01*
X003340Y018680D01*
X004108Y018680D01*
X004108Y018098D01*
X004151Y018055D01*
X004108Y018012D01*
X004108Y018010D01*
X003960Y018010D01*
X003960Y018085D01*
X003879Y018280D01*
X003730Y018429D01*
X003535Y018510D01*
X003325Y018510D01*
X003130Y018429D01*
X002981Y018280D01*
X002900Y018085D01*
X002900Y017275D01*
X002981Y017080D01*
X003130Y016931D01*
X003325Y016850D01*
X003535Y016850D01*
X003730Y016931D01*
X003879Y017080D01*
X003960Y017275D01*
X003960Y017430D01*
X004108Y017430D01*
X004108Y017428D01*
X004243Y017294D01*
X004867Y017294D01*
X005002Y017428D01*
X005002Y018012D01*
X004959Y018055D01*
X005002Y018098D01*
X005002Y018680D01*
X005528Y018680D01*
X005635Y018725D02*
X005716Y018806D01*
X005647Y018566D02*
X005002Y018566D01*
X005002Y018408D02*
X005556Y018408D01*
X005545Y018249D02*
X005002Y018249D01*
X004995Y018091D02*
X005602Y018091D01*
X005640Y017932D02*
X005002Y017932D01*
X005002Y017774D02*
X005640Y017774D01*
X005640Y017615D02*
X005002Y017615D01*
X005002Y017457D02*
X005640Y017457D01*
X005640Y017298D02*
X004871Y017298D01*
X004239Y017298D02*
X003960Y017298D01*
X003904Y017140D02*
X005640Y017140D01*
X005640Y016981D02*
X003781Y016981D01*
X003079Y016981D02*
X002595Y016981D01*
X002595Y016823D02*
X005640Y016823D01*
X005640Y016664D02*
X002595Y016664D01*
X002595Y016506D02*
X005640Y016506D01*
X005640Y016347D02*
X002595Y016347D01*
X002595Y016189D02*
X005640Y016189D01*
X005448Y016030D02*
X005412Y016030D01*
X005412Y015872D02*
X005448Y015872D01*
X005053Y015872D02*
X002595Y015872D01*
X002595Y016030D02*
X005060Y016030D01*
X005053Y015713D02*
X002595Y015713D01*
X002595Y015555D02*
X005053Y015555D01*
X005003Y015396D02*
X002595Y015396D01*
X002595Y014705D02*
X005082Y014705D01*
X005138Y014649D01*
X005722Y014649D01*
X005778Y014705D01*
X006546Y014705D01*
X006546Y014680D01*
X006546Y014655D01*
X005807Y014655D01*
X005701Y014611D01*
X003641Y012551D01*
X003559Y012469D01*
X003515Y012363D01*
X003515Y012309D01*
X003479Y012273D01*
X003420Y012132D01*
X003420Y011978D01*
X003479Y011837D01*
X003587Y011729D01*
X003728Y011670D01*
X003882Y011670D01*
X003992Y011716D01*
X004103Y011670D01*
X004257Y011670D01*
X004367Y011716D01*
X004478Y011670D01*
X004632Y011670D01*
X004743Y011716D01*
X004853Y011670D01*
X005007Y011670D01*
X005117Y011716D01*
X005228Y011670D01*
X005382Y011670D01*
X005523Y011729D01*
X005631Y011837D01*
X005690Y011978D01*
X005690Y012132D01*
X005647Y012236D01*
X006225Y012815D01*
X006593Y012815D01*
X006631Y012777D01*
X007402Y012777D01*
X007402Y012220D01*
X006622Y012220D01*
X006516Y012176D01*
X005810Y011470D01*
X003550Y011470D01*
X002855Y012165D01*
X002855Y012289D01*
X002771Y012492D01*
X002617Y012646D01*
X002535Y012680D01*
X002617Y012714D01*
X002771Y012868D01*
X002855Y013071D01*
X002855Y013289D01*
X002771Y013492D01*
X002617Y013646D01*
X002595Y013655D01*
X002595Y014705D01*
X002595Y014604D02*
X005693Y014604D01*
X005535Y014445D02*
X002595Y014445D01*
X002595Y014287D02*
X005376Y014287D01*
X005218Y014128D02*
X002595Y014128D01*
X002595Y013970D02*
X005059Y013970D01*
X004901Y013811D02*
X002595Y013811D01*
X002601Y013653D02*
X004742Y013653D01*
X004584Y013494D02*
X002769Y013494D01*
X002836Y013336D02*
X004425Y013336D01*
X004267Y013177D02*
X002855Y013177D01*
X002833Y013019D02*
X004108Y013019D01*
X003950Y012860D02*
X002763Y012860D01*
X002587Y012702D02*
X003791Y012702D01*
X003633Y012543D02*
X002720Y012543D01*
X002816Y012385D02*
X003524Y012385D01*
X003459Y012226D02*
X002855Y012226D01*
X002953Y012068D02*
X003420Y012068D01*
X003449Y011909D02*
X003111Y011909D01*
X003270Y011751D02*
X003565Y011751D01*
X003428Y011592D02*
X005932Y011592D01*
X006090Y011751D02*
X005545Y011751D01*
X005661Y011909D02*
X006249Y011909D01*
X006407Y012068D02*
X005690Y012068D01*
X005651Y012226D02*
X007402Y012226D01*
X007402Y012385D02*
X005795Y012385D01*
X005953Y012543D02*
X007402Y012543D01*
X007402Y012702D02*
X006112Y012702D01*
X007547Y012922D02*
X007547Y014559D01*
X007497Y014609D01*
X007497Y014680D01*
X007497Y014705D01*
X008700Y014705D01*
X008700Y012922D01*
X008481Y012922D01*
X007547Y012922D01*
X007547Y013019D02*
X008700Y013019D01*
X008700Y013177D02*
X007547Y013177D01*
X007547Y013336D02*
X008700Y013336D01*
X008700Y013494D02*
X007547Y013494D01*
X007547Y013653D02*
X008700Y013653D01*
X008700Y013811D02*
X007547Y013811D01*
X007547Y013970D02*
X008700Y013970D01*
X008700Y014128D02*
X007547Y014128D01*
X007547Y014287D02*
X008700Y014287D01*
X008700Y014445D02*
X007547Y014445D01*
X007502Y014604D02*
X008700Y014604D01*
X009330Y015285D02*
X007547Y015285D01*
X007547Y016438D01*
X008869Y016438D01*
X008919Y016488D01*
X008990Y016488D01*
X008990Y016559D01*
X008990Y016559D01*
X008990Y016488D01*
X009112Y016488D01*
X009148Y016498D01*
X009183Y016488D01*
X009305Y016488D01*
X009330Y016488D01*
X009330Y015285D01*
X009330Y015396D02*
X007547Y015396D01*
X007547Y015555D02*
X009330Y015555D01*
X009330Y015713D02*
X007547Y015713D01*
X007547Y015872D02*
X009330Y015872D01*
X009330Y016030D02*
X007547Y016030D01*
X007547Y016189D02*
X009330Y016189D01*
X009330Y016347D02*
X007547Y016347D01*
X007402Y016664D02*
X006970Y016664D01*
X006970Y016823D02*
X007402Y016823D01*
X007402Y016981D02*
X006970Y016981D01*
X006970Y017140D02*
X007402Y017140D01*
X007402Y017298D02*
X006970Y017298D01*
X007056Y017457D02*
X007440Y017457D01*
X007440Y017615D02*
X007065Y017615D01*
X007006Y017774D02*
X007440Y017774D01*
X007440Y017932D02*
X006794Y017932D01*
X006689Y018091D02*
X007440Y018091D01*
X007440Y018249D02*
X006516Y018249D01*
X006335Y018408D02*
X007440Y018408D01*
X007440Y018566D02*
X006213Y018566D01*
X005950Y019042D02*
X007440Y019042D01*
X007440Y019200D02*
X005994Y019200D01*
X005994Y019359D02*
X007440Y019359D01*
X007440Y019517D02*
X005994Y019517D01*
X005994Y019676D02*
X007440Y019676D01*
X007440Y019834D02*
X005994Y019834D01*
X005994Y019993D02*
X007440Y019993D01*
X007440Y020151D02*
X005994Y020151D01*
X005994Y020310D02*
X007440Y020310D01*
X007440Y020468D02*
X005994Y020468D01*
X006015Y020627D02*
X006392Y020627D01*
X006247Y020785D02*
X006160Y020785D01*
X005392Y020627D02*
X004903Y020627D01*
X005093Y020785D02*
X005247Y020785D01*
X005182Y020944D02*
X005167Y020944D01*
X005173Y021736D02*
X005177Y021736D01*
X005233Y021895D02*
X005116Y021895D01*
X004966Y022053D02*
X005358Y022053D01*
X006050Y022053D02*
X006358Y022053D01*
X006233Y021895D02*
X006174Y021895D01*
X007050Y022053D02*
X007358Y022053D01*
X007233Y021895D02*
X007174Y021895D01*
X008050Y022053D02*
X008358Y022053D01*
X008233Y021895D02*
X008174Y021895D01*
X009050Y022053D02*
X009358Y022053D01*
X009233Y021895D02*
X009174Y021895D01*
X010050Y022053D02*
X010549Y022053D01*
X010493Y021895D02*
X010174Y021895D01*
X010230Y021736D02*
X010493Y021736D01*
X010493Y021578D02*
X010230Y021578D01*
X010230Y021419D02*
X010493Y021419D01*
X010493Y021261D02*
X010230Y021261D01*
X010230Y021102D02*
X010493Y021102D01*
X010493Y020944D02*
X010226Y020944D01*
X010160Y020785D02*
X010571Y020785D01*
X010906Y020627D02*
X010015Y020627D01*
X010368Y020468D02*
X009503Y020468D01*
X009345Y020310D02*
X010149Y020310D01*
X009991Y020151D02*
X009186Y020151D01*
X009028Y019993D02*
X009892Y019993D01*
X009890Y019834D02*
X008869Y019834D01*
X008711Y019676D02*
X009886Y019676D01*
X009730Y019517D02*
X008650Y019517D01*
X008650Y019359D02*
X009664Y019359D01*
X009653Y019200D02*
X008650Y019200D01*
X008650Y019042D02*
X009653Y019042D01*
X009653Y018883D02*
X008650Y018883D01*
X008650Y018725D02*
X009564Y018725D01*
X009406Y018566D02*
X008650Y018566D01*
X008650Y018408D02*
X008663Y018408D01*
X008952Y018408D02*
X008989Y018408D01*
X008989Y018249D02*
X008952Y018249D01*
X008952Y018091D02*
X008989Y018091D01*
X008989Y018037D02*
X008989Y017678D01*
X009211Y017678D01*
X009256Y017690D01*
X009262Y017694D01*
X009328Y017628D01*
X009330Y017628D01*
X009330Y017439D01*
X009305Y017439D01*
X009183Y017439D01*
X009148Y017429D01*
X009112Y017439D01*
X008990Y017439D01*
X008919Y017439D01*
X008869Y017489D01*
X008650Y017489D01*
X008650Y017710D01*
X008684Y017690D01*
X008730Y017678D01*
X008952Y017678D01*
X008952Y018037D01*
X008989Y018037D01*
X008989Y017932D02*
X008952Y017932D01*
X008952Y017774D02*
X008989Y017774D01*
X008901Y017457D02*
X009330Y017457D01*
X009305Y017439D02*
X009305Y017367D01*
X009305Y017439D01*
X009305Y017367D02*
X009305Y017367D01*
X009330Y017615D02*
X008650Y017615D01*
X008990Y017439D02*
X008990Y017367D01*
X008990Y017367D01*
X008990Y017439D01*
X009004Y016963D02*
X009268Y016963D01*
X009292Y016963D01*
X009004Y016963D01*
X009004Y016963D01*
X009292Y016963D02*
X009292Y016963D01*
X009305Y016559D02*
X009305Y016559D01*
X009305Y016488D01*
X009305Y016559D01*
X009305Y016506D02*
X009305Y016506D01*
X008990Y016506D02*
X008990Y016506D01*
X009910Y016438D02*
X010056Y016438D01*
X010995Y016438D01*
X011042Y016391D01*
X011063Y016370D01*
X011063Y015116D01*
X011113Y015066D01*
X011113Y014995D01*
X011184Y014995D01*
X011113Y014995D01*
X011113Y014970D01*
X010175Y014970D01*
X009910Y015235D01*
X009910Y016438D01*
X009910Y016347D02*
X011063Y016347D01*
X011063Y016189D02*
X009910Y016189D01*
X009910Y016030D02*
X011063Y016030D01*
X011063Y015872D02*
X009910Y015872D01*
X009910Y015713D02*
X011063Y015713D01*
X011063Y015555D02*
X009910Y015555D01*
X009910Y015396D02*
X011063Y015396D01*
X011063Y015238D02*
X009910Y015238D01*
X010066Y015079D02*
X011100Y015079D01*
X011184Y014995D02*
X011184Y014995D01*
X011184Y014995D01*
X013295Y014128D02*
X013584Y014128D01*
X013456Y013970D02*
X013307Y013970D01*
X014883Y013019D02*
X015280Y013019D01*
X015280Y012860D02*
X014940Y012860D01*
X014929Y012702D02*
X015330Y012702D01*
X015330Y012543D02*
X014845Y012543D01*
X014845Y012226D02*
X015330Y012226D01*
X015364Y012068D02*
X014845Y012068D01*
X014845Y011909D02*
X016700Y011909D01*
X016700Y012055D02*
X016835Y012190D01*
X018525Y012190D01*
X018660Y012055D01*
X018660Y011075D01*
X018525Y010940D01*
X016835Y010940D01*
X016700Y011075D01*
X016700Y012055D01*
X016712Y012068D02*
X016246Y012068D01*
X016244Y012065D02*
X016268Y012106D01*
X016280Y012151D01*
X016280Y012383D01*
X015853Y012383D01*
X015853Y011995D01*
X016124Y011995D01*
X016170Y012007D01*
X016211Y012031D01*
X016244Y012065D01*
X016280Y012226D02*
X019080Y012226D01*
X019114Y012068D02*
X018648Y012068D01*
X018660Y011909D02*
X023823Y011909D01*
X023702Y012068D02*
X019996Y012068D01*
X019994Y012065D02*
X020018Y012106D01*
X020030Y012151D01*
X020030Y012383D01*
X019603Y012383D01*
X019603Y011995D01*
X019874Y011995D01*
X019920Y012007D01*
X019961Y012031D01*
X019994Y012065D01*
X020030Y012226D02*
X023702Y012226D01*
X024750Y011909D02*
X033322Y011909D01*
X033408Y011995D02*
X033188Y011774D01*
X033068Y011486D01*
X033068Y011173D01*
X033077Y011152D01*
X033077Y010900D01*
X032936Y010900D01*
X032936Y010760D01*
X032433Y010760D01*
X032433Y010506D01*
X032445Y010460D01*
X032469Y010419D01*
X032503Y010385D01*
X032544Y010362D01*
X032589Y010349D01*
X032936Y010349D01*
X032936Y010760D01*
X033077Y010760D01*
X033077Y010349D01*
X033424Y010349D01*
X033470Y010362D01*
X033511Y010385D01*
X033545Y010419D01*
X033568Y010460D01*
X033580Y010506D01*
X033580Y010593D01*
X033697Y010544D01*
X034009Y010544D01*
X034298Y010664D01*
X034519Y010885D01*
X034638Y011173D01*
X034638Y011486D01*
X034519Y011774D01*
X034298Y011995D01*
X034009Y012115D01*
X033697Y012115D01*
X033408Y011995D01*
X033583Y012068D02*
X024871Y012068D01*
X024871Y012226D02*
X034700Y012226D01*
X034700Y012068D02*
X034123Y012068D01*
X034384Y011909D02*
X034700Y011909D01*
X034700Y011751D02*
X034529Y011751D01*
X034594Y011592D02*
X034700Y011592D01*
X034700Y011434D02*
X034638Y011434D01*
X034638Y011275D02*
X034700Y011275D01*
X034700Y011117D02*
X034615Y011117D01*
X034549Y010958D02*
X034700Y010958D01*
X034700Y010800D02*
X034433Y010800D01*
X034242Y010641D02*
X034700Y010641D01*
X034700Y010483D02*
X033574Y010483D01*
X033077Y010483D02*
X032936Y010483D01*
X032936Y010641D02*
X033077Y010641D01*
X032936Y010800D02*
X024871Y010800D01*
X024871Y010750D02*
X024736Y010615D01*
X023837Y010615D01*
X023702Y010750D01*
X023702Y011374D01*
X023837Y011508D01*
X024736Y011508D01*
X024871Y011374D01*
X024871Y010750D01*
X024762Y010641D02*
X032433Y010641D01*
X032439Y010483D02*
X013663Y010483D01*
X013720Y010324D02*
X031808Y010324D01*
X031424Y010166D02*
X013720Y010166D01*
X013140Y010166D02*
X009910Y010166D01*
X009910Y010324D02*
X010126Y010324D01*
X009967Y010483D02*
X009910Y010483D01*
X010935Y010007D02*
X012175Y010007D01*
X012175Y009849D02*
X010935Y009849D01*
X010935Y009690D02*
X012175Y009690D01*
X012175Y009532D02*
X010935Y009532D01*
X010935Y009373D02*
X012175Y009373D01*
X012175Y009215D02*
X010935Y009215D01*
X010911Y009056D02*
X012199Y009056D01*
X013690Y008176D02*
X013678Y008130D01*
X013678Y007908D01*
X014037Y007908D01*
X014037Y008286D01*
X013834Y008286D01*
X013789Y008274D01*
X013748Y008250D01*
X013714Y008217D01*
X013690Y008176D01*
X013678Y008105D02*
X009307Y008105D01*
X009307Y008130D02*
X009295Y008176D01*
X009271Y008217D01*
X009237Y008250D01*
X009196Y008274D01*
X009151Y008286D01*
X008948Y008286D01*
X008948Y007908D01*
X009307Y007908D01*
X009307Y008130D01*
X009214Y008264D02*
X013771Y008264D01*
X014037Y008264D02*
X014073Y008264D01*
X014073Y008286D02*
X014073Y007908D01*
X014037Y007908D01*
X014037Y007871D01*
X013678Y007871D01*
X013678Y007649D01*
X013690Y007604D01*
X013694Y007598D01*
X013628Y007532D01*
X013628Y006909D01*
X013763Y006774D01*
X013765Y006774D01*
X013765Y005932D01*
X013495Y005662D01*
X013495Y005198D01*
X013823Y004870D01*
X014287Y004870D01*
X014615Y005198D01*
X014615Y005662D01*
X014345Y005932D01*
X014345Y006774D01*
X014347Y006774D01*
X014482Y006909D01*
X014482Y007532D01*
X014416Y007598D01*
X014420Y007604D01*
X014432Y007649D01*
X014432Y007871D01*
X014073Y007871D01*
X014073Y007908D01*
X014432Y007908D01*
X014432Y008130D01*
X014420Y008176D01*
X014396Y008217D01*
X014362Y008250D01*
X014321Y008274D01*
X014276Y008286D01*
X014073Y008286D01*
X014073Y008105D02*
X014037Y008105D01*
X014037Y007947D02*
X014073Y007947D01*
X014432Y007947D02*
X018803Y007947D01*
X018803Y007908D02*
X019162Y007908D01*
X019162Y008286D01*
X018959Y008286D01*
X018914Y008274D01*
X018873Y008250D01*
X018839Y008217D01*
X018815Y008176D01*
X018803Y008130D01*
X018803Y007908D01*
X018803Y007871D02*
X018803Y007649D01*
X018815Y007604D01*
X018819Y007598D01*
X018753Y007532D01*
X018753Y006909D01*
X018888Y006774D01*
X018890Y006774D01*
X018890Y005932D01*
X018620Y005662D01*
X018620Y005198D01*
X018948Y004870D01*
X019412Y004870D01*
X019740Y005198D01*
X019740Y005662D01*
X019470Y005932D01*
X019470Y006774D01*
X019472Y006774D01*
X019607Y006909D01*
X019607Y007532D01*
X019541Y007598D01*
X019545Y007604D01*
X019557Y007649D01*
X019557Y007871D01*
X019198Y007871D01*
X019198Y007908D01*
X019162Y007908D01*
X019162Y007871D01*
X018803Y007871D01*
X018803Y007788D02*
X014432Y007788D01*
X014427Y007630D02*
X018808Y007630D01*
X018753Y007471D02*
X014482Y007471D01*
X014482Y007313D02*
X018753Y007313D01*
X018753Y007154D02*
X014482Y007154D01*
X014482Y006996D02*
X018753Y006996D01*
X018825Y006837D02*
X014410Y006837D01*
X014345Y006679D02*
X018890Y006679D01*
X018890Y006520D02*
X014345Y006520D01*
X014345Y006362D02*
X018890Y006362D01*
X018890Y006203D02*
X014345Y006203D01*
X014345Y006045D02*
X018890Y006045D01*
X018844Y005886D02*
X016391Y005886D01*
X016287Y005990D02*
X016615Y005662D01*
X016615Y005198D01*
X016287Y004870D01*
X015823Y004870D01*
X015495Y005198D01*
X015495Y005662D01*
X015823Y005990D01*
X016287Y005990D01*
X016549Y005728D02*
X018686Y005728D01*
X018620Y005569D02*
X016615Y005569D01*
X016615Y005411D02*
X018620Y005411D01*
X018620Y005252D02*
X016615Y005252D01*
X016510Y005094D02*
X018725Y005094D01*
X018883Y004935D02*
X016352Y004935D01*
X015758Y004935D02*
X014352Y004935D01*
X014510Y005094D02*
X015600Y005094D01*
X015495Y005252D02*
X014615Y005252D01*
X014615Y005411D02*
X015495Y005411D01*
X015495Y005569D02*
X014615Y005569D01*
X014549Y005728D02*
X015561Y005728D01*
X015719Y005886D02*
X014391Y005886D01*
X013765Y006045D02*
X009220Y006045D01*
X009220Y006203D02*
X013765Y006203D01*
X013765Y006362D02*
X009220Y006362D01*
X009220Y006520D02*
X013765Y006520D01*
X013765Y006679D02*
X009220Y006679D01*
X009285Y006837D02*
X013700Y006837D01*
X013628Y006996D02*
X009357Y006996D01*
X009357Y007154D02*
X013628Y007154D01*
X013628Y007313D02*
X009357Y007313D01*
X009357Y007471D02*
X013628Y007471D01*
X013683Y007630D02*
X009302Y007630D01*
X009307Y007788D02*
X013678Y007788D01*
X013678Y007947D02*
X009307Y007947D01*
X008948Y007947D02*
X008912Y007947D01*
X008912Y008105D02*
X008948Y008105D01*
X008948Y008264D02*
X008912Y008264D01*
X009266Y005886D02*
X010594Y005886D01*
X010698Y005990D02*
X010370Y005662D01*
X010370Y005198D01*
X010698Y004870D01*
X011162Y004870D01*
X011490Y005198D01*
X011490Y005662D01*
X011162Y005990D01*
X010698Y005990D01*
X010436Y005728D02*
X009424Y005728D01*
X009490Y005569D02*
X010370Y005569D01*
X010370Y005411D02*
X009490Y005411D01*
X009490Y005252D02*
X010370Y005252D01*
X010475Y005094D02*
X009385Y005094D01*
X009227Y004935D02*
X010633Y004935D01*
X011227Y004935D02*
X013758Y004935D01*
X013600Y005094D02*
X011385Y005094D01*
X011490Y005252D02*
X013495Y005252D01*
X013495Y005411D02*
X011490Y005411D01*
X011490Y005569D02*
X013495Y005569D01*
X013561Y005728D02*
X011424Y005728D01*
X011266Y005886D02*
X013719Y005886D01*
X014432Y008105D02*
X018803Y008105D01*
X018896Y008264D02*
X014339Y008264D01*
X014711Y009056D02*
X030886Y009056D01*
X030886Y009215D02*
X016467Y009215D01*
X016467Y009214D02*
X016500Y009248D01*
X016524Y009289D01*
X016536Y009334D01*
X016536Y009537D01*
X016158Y009537D01*
X016158Y009178D01*
X016380Y009178D01*
X016426Y009190D01*
X016467Y009214D01*
X016536Y009373D02*
X030897Y009373D01*
X030939Y009532D02*
X016536Y009532D01*
X016536Y009690D02*
X031000Y009690D01*
X031091Y009849D02*
X016508Y009849D01*
X016158Y009849D02*
X016121Y009849D01*
X016121Y009690D02*
X016158Y009690D01*
X016158Y009532D02*
X016121Y009532D01*
X016121Y009373D02*
X016158Y009373D01*
X016158Y009215D02*
X016121Y009215D01*
X015072Y009215D02*
X014735Y009215D01*
X014735Y009849D02*
X015025Y009849D01*
X014735Y010007D02*
X031229Y010007D01*
X032302Y010324D02*
X034700Y010324D01*
X034700Y010166D02*
X032686Y010166D01*
X032881Y010007D02*
X034700Y010007D01*
X034700Y009849D02*
X033019Y009849D01*
X033110Y009690D02*
X034700Y009690D01*
X034700Y009532D02*
X033171Y009532D01*
X033213Y009373D02*
X034700Y009373D01*
X034700Y009215D02*
X033224Y009215D01*
X033224Y009056D02*
X034700Y009056D01*
X034700Y008898D02*
X033190Y008898D01*
X033147Y008739D02*
X034700Y008739D01*
X034700Y008581D02*
X033059Y008581D01*
X032950Y008422D02*
X034700Y008422D01*
X034700Y008264D02*
X032792Y008264D01*
X032531Y008105D02*
X034700Y008105D01*
X034700Y007947D02*
X029182Y007947D01*
X029182Y007908D02*
X029182Y008130D01*
X029170Y008176D01*
X029146Y008217D01*
X029112Y008250D01*
X029071Y008274D01*
X029026Y008286D01*
X028823Y008286D01*
X028823Y007908D01*
X028787Y007908D01*
X028787Y008286D01*
X028584Y008286D01*
X028539Y008274D01*
X028498Y008250D01*
X028464Y008217D01*
X028440Y008176D01*
X028428Y008130D01*
X028428Y007908D01*
X028787Y007908D01*
X028787Y007871D01*
X028428Y007871D01*
X028428Y007649D01*
X028440Y007604D01*
X028444Y007598D01*
X028378Y007532D01*
X028378Y006909D01*
X028513Y006774D01*
X028515Y006774D01*
X028515Y005932D01*
X028245Y005662D01*
X028245Y005198D01*
X028573Y004870D01*
X029037Y004870D01*
X029365Y005198D01*
X029365Y005662D01*
X029095Y005932D01*
X029095Y006774D01*
X029097Y006774D01*
X029232Y006909D01*
X029232Y007532D01*
X029166Y007598D01*
X029170Y007604D01*
X029182Y007649D01*
X029182Y007871D01*
X028823Y007871D01*
X028823Y007908D01*
X029182Y007908D01*
X029182Y007788D02*
X034700Y007788D01*
X034700Y007630D02*
X029177Y007630D01*
X029232Y007471D02*
X034700Y007471D01*
X034700Y007313D02*
X029232Y007313D01*
X029232Y007154D02*
X034700Y007154D01*
X034700Y006996D02*
X029232Y006996D01*
X029160Y006837D02*
X032670Y006837D01*
X032512Y006679D02*
X029095Y006679D01*
X029095Y006520D02*
X032495Y006520D01*
X032495Y006362D02*
X029095Y006362D01*
X029095Y006203D02*
X032495Y006203D01*
X032649Y006045D02*
X029095Y006045D01*
X029141Y005886D02*
X030469Y005886D01*
X030573Y005990D02*
X030245Y005662D01*
X030245Y005198D01*
X030573Y004870D01*
X031037Y004870D01*
X031365Y005198D01*
X031365Y005662D01*
X031037Y005990D01*
X030573Y005990D01*
X030311Y005728D02*
X029299Y005728D01*
X029365Y005569D02*
X030245Y005569D01*
X030245Y005411D02*
X029365Y005411D01*
X029365Y005252D02*
X030245Y005252D01*
X030350Y005094D02*
X029260Y005094D01*
X029102Y004935D02*
X030508Y004935D01*
X031102Y004935D02*
X032768Y004935D01*
X033342Y004935D02*
X033765Y004935D01*
X033765Y005094D02*
X031260Y005094D01*
X031365Y005252D02*
X033765Y005252D01*
X033765Y005411D02*
X031365Y005411D01*
X031365Y005569D02*
X033765Y005569D01*
X033765Y005728D02*
X031299Y005728D01*
X031141Y005886D02*
X032807Y005886D01*
X033303Y005886D02*
X033765Y005886D01*
X033649Y006045D02*
X033461Y006045D01*
X034345Y005886D02*
X034700Y005886D01*
X034700Y005728D02*
X034345Y005728D01*
X034345Y005569D02*
X034700Y005569D01*
X034700Y005411D02*
X034345Y005411D01*
X034345Y005252D02*
X034700Y005252D01*
X034700Y005094D02*
X034345Y005094D01*
X034345Y004935D02*
X034700Y004935D01*
X034700Y004777D02*
X034500Y004777D01*
X034615Y004618D02*
X034700Y004618D01*
X034700Y004460D02*
X034615Y004460D01*
X034615Y004301D02*
X034700Y004301D01*
X034700Y004143D02*
X034559Y004143D01*
X034700Y003984D02*
X034401Y003984D01*
X034345Y003826D02*
X034700Y003826D01*
X034700Y003667D02*
X034345Y003667D01*
X034345Y003509D02*
X034700Y003509D01*
X034700Y003350D02*
X034345Y003350D01*
X034345Y003192D02*
X034700Y003192D01*
X034700Y003033D02*
X034345Y003033D01*
X034402Y002875D02*
X034700Y002875D01*
X034700Y002716D02*
X034561Y002716D01*
X034615Y002558D02*
X034700Y002558D01*
X034700Y002399D02*
X034615Y002399D01*
X034615Y002241D02*
X034700Y002241D01*
X034700Y002082D02*
X034499Y002082D01*
X034340Y001924D02*
X034700Y001924D01*
X034700Y001765D02*
X023199Y001765D01*
X023199Y001607D02*
X034700Y001607D01*
X034700Y001448D02*
X023199Y001448D01*
X023136Y001290D02*
X034700Y001290D01*
X034700Y001131D02*
X023070Y001131D01*
X022938Y000973D02*
X034700Y000973D01*
X034700Y000814D02*
X022779Y000814D01*
X023161Y001924D02*
X032770Y001924D01*
X032611Y002082D02*
X023095Y002082D01*
X022998Y002241D02*
X032495Y002241D01*
X033340Y001924D02*
X033770Y001924D01*
X033611Y002082D02*
X033499Y002082D01*
X033402Y002875D02*
X033708Y002875D01*
X033709Y003984D02*
X033401Y003984D01*
X033500Y004777D02*
X033610Y004777D01*
X034461Y006045D02*
X034700Y006045D01*
X034700Y006203D02*
X034615Y006203D01*
X034615Y006362D02*
X034700Y006362D01*
X034700Y006520D02*
X034615Y006520D01*
X034598Y006679D02*
X034700Y006679D01*
X034700Y006837D02*
X034440Y006837D01*
X033670Y006837D02*
X033440Y006837D01*
X031579Y008105D02*
X029182Y008105D01*
X029089Y008264D02*
X031318Y008264D01*
X028823Y008264D02*
X028787Y008264D01*
X028787Y008105D02*
X028823Y008105D01*
X028823Y007947D02*
X028787Y007947D01*
X028428Y007947D02*
X019557Y007947D01*
X019557Y007908D02*
X019557Y008130D01*
X019545Y008176D01*
X019521Y008217D01*
X019487Y008250D01*
X019446Y008274D01*
X019401Y008286D01*
X019198Y008286D01*
X019198Y007908D01*
X019557Y007908D01*
X019557Y007788D02*
X028428Y007788D01*
X028433Y007630D02*
X019552Y007630D01*
X019607Y007471D02*
X028378Y007471D01*
X028378Y007313D02*
X019607Y007313D01*
X019607Y007154D02*
X028378Y007154D01*
X028378Y006996D02*
X019607Y006996D01*
X019535Y006837D02*
X028450Y006837D01*
X028515Y006679D02*
X026384Y006679D01*
X026333Y006730D02*
X026152Y006805D01*
X025958Y006805D01*
X025777Y006730D01*
X025640Y006593D01*
X025565Y006412D01*
X025565Y005698D01*
X025640Y005517D01*
X025777Y005380D01*
X025958Y005305D01*
X026152Y005305D01*
X026333Y005380D01*
X026470Y005517D01*
X026545Y005698D01*
X026545Y006412D01*
X026470Y006593D01*
X026333Y006730D01*
X026500Y006520D02*
X028515Y006520D01*
X028515Y006362D02*
X026545Y006362D01*
X026545Y006203D02*
X028515Y006203D01*
X028515Y006045D02*
X026545Y006045D01*
X026545Y005886D02*
X028469Y005886D01*
X028311Y005728D02*
X026545Y005728D01*
X026492Y005569D02*
X028245Y005569D01*
X028245Y005411D02*
X026363Y005411D01*
X025747Y005411D02*
X025363Y005411D01*
X025333Y005380D02*
X025470Y005517D01*
X025545Y005698D01*
X025545Y006412D01*
X025470Y006593D01*
X025333Y006730D01*
X025152Y006805D01*
X024958Y006805D01*
X024777Y006730D01*
X024640Y006593D01*
X024565Y006412D01*
X024565Y005698D01*
X024640Y005517D01*
X024777Y005380D01*
X024958Y005305D01*
X025152Y005305D01*
X025333Y005380D01*
X025492Y005569D02*
X025618Y005569D01*
X025565Y005728D02*
X025545Y005728D01*
X025545Y005886D02*
X025565Y005886D01*
X025565Y006045D02*
X025545Y006045D01*
X025545Y006203D02*
X025565Y006203D01*
X025565Y006362D02*
X025545Y006362D01*
X025500Y006520D02*
X025610Y006520D01*
X025726Y006679D02*
X025384Y006679D01*
X024726Y006679D02*
X024384Y006679D01*
X024333Y006730D02*
X024152Y006805D01*
X023958Y006805D01*
X023777Y006730D01*
X023640Y006593D01*
X023565Y006412D01*
X023565Y005698D01*
X023640Y005517D01*
X023777Y005380D01*
X023958Y005305D01*
X024152Y005305D01*
X024333Y005380D01*
X024470Y005517D01*
X024545Y005698D01*
X024545Y006412D01*
X024470Y006593D01*
X024333Y006730D01*
X024500Y006520D02*
X024610Y006520D01*
X024565Y006362D02*
X024545Y006362D01*
X024545Y006203D02*
X024565Y006203D01*
X024565Y006045D02*
X024545Y006045D01*
X024545Y005886D02*
X024565Y005886D01*
X024565Y005728D02*
X024545Y005728D01*
X024492Y005569D02*
X024618Y005569D01*
X024747Y005411D02*
X024363Y005411D01*
X023747Y005411D02*
X021740Y005411D01*
X021740Y005569D02*
X023618Y005569D01*
X023565Y005728D02*
X021674Y005728D01*
X021740Y005662D02*
X021412Y005990D01*
X020948Y005990D01*
X020620Y005662D01*
X020620Y005198D01*
X020948Y004870D01*
X021412Y004870D01*
X021740Y005198D01*
X021740Y005662D01*
X021516Y005886D02*
X023565Y005886D01*
X023565Y006045D02*
X019470Y006045D01*
X019470Y006203D02*
X023565Y006203D01*
X023565Y006362D02*
X019470Y006362D01*
X019470Y006520D02*
X023610Y006520D01*
X023726Y006679D02*
X019470Y006679D01*
X019516Y005886D02*
X020844Y005886D01*
X020686Y005728D02*
X019674Y005728D01*
X019740Y005569D02*
X020620Y005569D01*
X020620Y005411D02*
X019740Y005411D01*
X019740Y005252D02*
X020620Y005252D01*
X020725Y005094D02*
X019635Y005094D01*
X019477Y004935D02*
X020883Y004935D01*
X021477Y004935D02*
X028508Y004935D01*
X028350Y005094D02*
X021635Y005094D01*
X021740Y005252D02*
X028245Y005252D01*
X026055Y003667D02*
X026055Y003667D01*
X026055Y003509D02*
X026055Y003509D01*
X026055Y003350D02*
X026055Y003350D01*
X026055Y003192D02*
X026055Y003192D01*
X026055Y003033D02*
X026055Y003033D01*
X026055Y002875D02*
X026055Y002875D01*
X026055Y002716D02*
X026055Y002716D01*
X026055Y002558D02*
X026055Y002558D01*
X025684Y002558D02*
X025426Y002558D01*
X025488Y002716D02*
X025622Y002716D01*
X025615Y002875D02*
X025495Y002875D01*
X025495Y003033D02*
X025615Y003033D01*
X025615Y003192D02*
X025495Y003192D01*
X025055Y003192D02*
X025055Y003192D01*
X025055Y003350D02*
X025055Y003350D01*
X025055Y003509D02*
X025055Y003509D01*
X025055Y003667D02*
X025055Y003667D01*
X024791Y003667D02*
X024319Y003667D01*
X024450Y003509D02*
X024660Y003509D01*
X024615Y003192D02*
X024495Y003192D01*
X024495Y003033D02*
X024615Y003033D01*
X024615Y002875D02*
X024495Y002875D01*
X024488Y002716D02*
X024622Y002716D01*
X024684Y002558D02*
X024426Y002558D01*
X024055Y002558D02*
X024055Y002558D01*
X024055Y002716D02*
X024055Y002716D01*
X024055Y002875D02*
X024055Y002875D01*
X024055Y003033D02*
X024055Y003033D01*
X025055Y003033D02*
X025055Y003033D01*
X025055Y002875D02*
X025055Y002875D01*
X025055Y002716D02*
X025055Y002716D01*
X025055Y002558D02*
X025055Y002558D01*
X025450Y003509D02*
X025660Y003509D01*
X025791Y003667D02*
X025319Y003667D01*
X019198Y007947D02*
X019162Y007947D01*
X019162Y008105D02*
X019198Y008105D01*
X019198Y008264D02*
X019162Y008264D01*
X019464Y008264D02*
X028521Y008264D01*
X028428Y008105D02*
X019557Y008105D01*
X023702Y010800D02*
X013346Y010800D01*
X013504Y010641D02*
X023811Y010641D01*
X023702Y010958D02*
X018543Y010958D01*
X018660Y011117D02*
X023702Y011117D01*
X023702Y011275D02*
X018660Y011275D01*
X018660Y011434D02*
X023762Y011434D01*
X024811Y011434D02*
X033068Y011434D01*
X033068Y011275D02*
X032936Y011275D01*
X032936Y011311D02*
X032589Y011311D01*
X032544Y011298D01*
X032503Y011275D01*
X024871Y011275D01*
X024871Y011117D02*
X032433Y011117D01*
X032433Y011154D02*
X032433Y010900D01*
X032936Y010900D01*
X032936Y011311D01*
X032936Y011117D02*
X033077Y011117D01*
X033077Y010958D02*
X032936Y010958D01*
X032433Y010958D02*
X024871Y010958D01*
X024871Y012385D02*
X034700Y012385D01*
X034700Y012543D02*
X024871Y012543D01*
X024871Y012702D02*
X034700Y012702D01*
X034700Y012860D02*
X024871Y012860D01*
X024871Y013019D02*
X034700Y013019D01*
X034700Y013177D02*
X024871Y013177D01*
X024871Y013653D02*
X034700Y013653D01*
X034700Y013811D02*
X024871Y013811D01*
X024871Y013970D02*
X034700Y013970D01*
X034700Y014128D02*
X024871Y014128D01*
X023759Y015238D02*
X022686Y015238D01*
X021614Y015573D02*
X021577Y015573D01*
X021577Y015952D01*
X021577Y016287D01*
X021614Y016287D01*
X021614Y015573D01*
X021577Y015555D02*
X020845Y015555D01*
X020845Y015396D02*
X021219Y015396D01*
X021249Y015238D02*
X020845Y015238D01*
X020265Y015238D02*
X015815Y015238D01*
X015748Y015079D02*
X020265Y015079D01*
X020265Y015396D02*
X016190Y015396D01*
X016260Y015555D02*
X016705Y015555D01*
X016905Y015555D02*
X020265Y015555D01*
X020228Y015713D02*
X017132Y015713D01*
X017190Y015872D02*
X020170Y015872D01*
X020180Y016030D02*
X017180Y016030D01*
X017184Y016189D02*
X017091Y016189D01*
X017426Y016189D02*
X020269Y016189D01*
X020841Y016189D02*
X021199Y016189D01*
X021199Y016347D02*
X017636Y016347D01*
X017690Y016506D02*
X021199Y016506D01*
X021248Y016664D02*
X017677Y016664D01*
X017582Y016823D02*
X020502Y016823D01*
X020344Y016981D02*
X017440Y016981D01*
X017437Y017140D02*
X020265Y017140D01*
X020193Y017298D02*
X017356Y017298D01*
X017470Y017457D02*
X020170Y017457D01*
X020215Y017615D02*
X017643Y017615D01*
X017690Y017774D02*
X020378Y017774D01*
X020258Y017932D02*
X017669Y017932D01*
X017564Y018091D02*
X020175Y018091D01*
X020170Y018249D02*
X017294Y018249D01*
X017411Y018408D02*
X020238Y018408D01*
X020265Y018566D02*
X017440Y018566D01*
X017401Y018725D02*
X020265Y018725D01*
X020348Y018883D02*
X017269Y018883D01*
X017144Y019181D02*
X017144Y019181D01*
X017125Y019200D02*
X014707Y019200D01*
X014707Y019042D02*
X018245Y019042D01*
X018272Y019676D02*
X017470Y019676D01*
X017311Y019834D02*
X018233Y019834D01*
X018233Y019993D02*
X017153Y019993D01*
X016994Y020151D02*
X018233Y020151D01*
X018236Y020310D02*
X016836Y020310D01*
X016617Y020468D02*
X018414Y020468D01*
X018381Y020627D02*
X018027Y020627D01*
X018165Y020785D02*
X018242Y020785D01*
X018994Y020468D02*
X021748Y020468D01*
X021548Y020627D02*
X019926Y020627D01*
X019954Y020641D02*
X020014Y020685D01*
X020067Y020738D01*
X020111Y020799D01*
X020146Y020865D01*
X020169Y020937D01*
X020180Y021011D01*
X020180Y021327D01*
X019722Y021327D01*
X019722Y020572D01*
X019741Y020572D01*
X019815Y020583D01*
X019887Y020607D01*
X019954Y020641D01*
X020102Y020785D02*
X021397Y020785D01*
X021332Y020944D02*
X020170Y020944D01*
X020180Y021102D02*
X021266Y021102D01*
X021255Y021261D02*
X020180Y021261D01*
X020180Y021364D02*
X019722Y021364D01*
X019722Y022119D01*
X019741Y022119D01*
X019815Y022107D01*
X019887Y022084D01*
X019954Y022050D01*
X020014Y022006D01*
X020067Y021953D01*
X020111Y021892D01*
X020146Y021825D01*
X020169Y021754D01*
X020180Y021680D01*
X020180Y021364D01*
X020180Y021419D02*
X021255Y021419D01*
X021281Y021578D02*
X020180Y021578D01*
X020172Y021736D02*
X021347Y021736D01*
X021425Y021895D02*
X020110Y021895D01*
X019948Y022053D02*
X021584Y022053D01*
X021835Y022212D02*
X002934Y022212D01*
X002150Y022212D02*
X000660Y022212D01*
X000660Y022053D02*
X001899Y022053D01*
X001740Y021895D02*
X000660Y021895D01*
X000660Y021736D02*
X001662Y021736D01*
X001596Y021578D02*
X000660Y021578D01*
X000660Y021419D02*
X001570Y021419D01*
X001570Y021261D02*
X000660Y021261D01*
X000660Y021102D02*
X001581Y021102D01*
X001647Y020944D02*
X000660Y020944D01*
X000660Y020785D02*
X001712Y020785D01*
X001863Y020627D02*
X000660Y020627D01*
X002956Y019200D02*
X003040Y019200D01*
X003226Y018566D02*
X004108Y018566D01*
X004108Y018408D02*
X003752Y018408D01*
X003892Y018249D02*
X004108Y018249D01*
X004115Y018091D02*
X003958Y018091D01*
X003108Y018408D02*
X003068Y018408D01*
X002968Y018249D02*
X002909Y018249D01*
X002902Y018091D02*
X002751Y018091D01*
X002900Y017932D02*
X002595Y017932D01*
X002595Y017774D02*
X002900Y017774D01*
X002900Y017615D02*
X002595Y017615D01*
X002595Y017457D02*
X002900Y017457D01*
X002900Y017298D02*
X002595Y017298D01*
X002595Y017140D02*
X002956Y017140D01*
X002015Y017140D02*
X001846Y017140D01*
X001903Y017298D02*
X002015Y017298D01*
X002015Y017457D02*
X001910Y017457D01*
X001910Y017615D02*
X002015Y017615D01*
X002015Y017774D02*
X001910Y017774D01*
X001910Y017932D02*
X002015Y017932D01*
X002015Y018091D02*
X001898Y018091D01*
X001828Y018249D02*
X002089Y018249D01*
X002247Y018408D02*
X001648Y018408D01*
X001032Y018249D02*
X000660Y018249D01*
X000660Y018091D02*
X000962Y018091D01*
X000950Y017932D02*
X000660Y017932D01*
X000660Y017774D02*
X000950Y017774D01*
X000950Y017615D02*
X000660Y017615D01*
X000660Y017457D02*
X000950Y017457D01*
X000957Y017298D02*
X000660Y017298D01*
X000660Y017140D02*
X001014Y017140D01*
X001697Y016981D02*
X002015Y016981D01*
X006546Y014680D02*
X006618Y014680D01*
X006618Y014680D01*
X006618Y014680D01*
X006546Y014680D01*
X007426Y014680D02*
X007426Y014680D01*
X007426Y014680D01*
X007497Y014680D01*
X007426Y014680D01*
X002009Y013653D02*
X001601Y013653D01*
X001769Y013494D02*
X001841Y013494D01*
X011162Y019042D02*
X011198Y019042D01*
X011198Y019200D02*
X011162Y019200D01*
X011162Y019359D02*
X011198Y019359D01*
X011198Y019517D02*
X011162Y019517D01*
X011162Y019676D02*
X011198Y019676D01*
X011342Y019676D02*
X011886Y019676D01*
X011730Y019517D02*
X011559Y019517D01*
X011639Y019359D02*
X011664Y019359D01*
X011018Y019676D02*
X010474Y019676D01*
X010494Y019834D02*
X016491Y019834D01*
X016649Y019676D02*
X014474Y019676D01*
X014630Y019517D02*
X016808Y019517D01*
X016966Y019359D02*
X014696Y019359D01*
X014707Y018883D02*
X015560Y018883D01*
X015064Y018725D02*
X014707Y018725D01*
X014707Y018566D02*
X014906Y018566D01*
X014747Y018408D02*
X014657Y018408D01*
X013730Y019517D02*
X013630Y019517D01*
X013474Y019676D02*
X013886Y019676D01*
X012886Y019676D02*
X012474Y019676D01*
X012630Y019517D02*
X012730Y019517D01*
X012668Y020778D02*
X013084Y020778D01*
X013084Y021350D01*
X012512Y021350D01*
X012512Y020934D01*
X012524Y020888D01*
X012548Y020847D01*
X012581Y020814D01*
X012622Y020790D01*
X012668Y020778D01*
X012640Y020785D02*
X011821Y020785D01*
X011898Y020944D02*
X012512Y020944D01*
X012512Y021102D02*
X011898Y021102D01*
X011898Y021261D02*
X012512Y021261D01*
X013084Y021261D02*
X013244Y021261D01*
X013244Y021350D02*
X013084Y021350D01*
X013084Y021510D01*
X012512Y021510D01*
X012512Y021926D01*
X012524Y021972D01*
X012548Y022013D01*
X012581Y022046D01*
X012622Y022070D01*
X012668Y022082D01*
X013084Y022082D01*
X013084Y021510D01*
X013244Y021510D01*
X013244Y022082D01*
X013660Y022082D01*
X013706Y022070D01*
X013747Y022046D01*
X013781Y022013D01*
X013804Y021972D01*
X013817Y021926D01*
X013817Y021510D01*
X013244Y021510D01*
X013244Y021350D01*
X013244Y020778D01*
X013660Y020778D01*
X013706Y020790D01*
X013747Y020814D01*
X013781Y020847D01*
X013804Y020888D01*
X013817Y020934D01*
X013817Y021350D01*
X013244Y021350D01*
X013244Y021419D02*
X014177Y021419D01*
X014177Y021261D02*
X013817Y021261D01*
X013817Y021102D02*
X014177Y021102D01*
X014177Y020944D02*
X013817Y020944D01*
X013688Y020785D02*
X014242Y020785D01*
X014381Y020627D02*
X011486Y020627D01*
X011898Y021419D02*
X013084Y021419D01*
X013084Y021578D02*
X013244Y021578D01*
X013244Y021736D02*
X013084Y021736D01*
X013084Y021895D02*
X013244Y021895D01*
X013244Y022053D02*
X013084Y022053D01*
X012593Y022053D02*
X011843Y022053D01*
X011898Y021895D02*
X012512Y021895D01*
X012512Y021736D02*
X011898Y021736D01*
X011898Y021578D02*
X012512Y021578D01*
X013084Y021102D02*
X013244Y021102D01*
X013244Y020944D02*
X013084Y020944D01*
X013084Y020785D02*
X013244Y020785D01*
X013817Y021578D02*
X014177Y021578D01*
X014177Y021736D02*
X013817Y021736D01*
X013817Y021895D02*
X014238Y021895D01*
X014369Y022053D02*
X013736Y022053D01*
X015038Y022053D02*
X015369Y022053D01*
X015238Y021895D02*
X015169Y021895D01*
X016038Y022053D02*
X016369Y022053D01*
X016238Y021895D02*
X016169Y021895D01*
X017038Y022053D02*
X017369Y022053D01*
X017238Y021895D02*
X017169Y021895D01*
X018038Y022053D02*
X018369Y022053D01*
X018238Y021895D02*
X018169Y021895D01*
X019038Y022053D02*
X019460Y022053D01*
X019685Y022053D02*
X019722Y022053D01*
X019722Y021895D02*
X019685Y021895D01*
X019685Y021736D02*
X019722Y021736D01*
X019722Y021578D02*
X019685Y021578D01*
X019685Y021419D02*
X019722Y021419D01*
X019722Y021261D02*
X019685Y021261D01*
X019685Y021102D02*
X019722Y021102D01*
X019722Y020944D02*
X019685Y020944D01*
X019685Y020785D02*
X019722Y020785D01*
X019722Y020627D02*
X019685Y020627D01*
X019481Y020627D02*
X019027Y020627D01*
X019165Y020785D02*
X019306Y020785D01*
X019237Y020944D02*
X019230Y020944D01*
X019230Y021736D02*
X019236Y021736D01*
X019298Y021895D02*
X019169Y021895D01*
X017381Y020627D02*
X017027Y020627D01*
X017165Y020785D02*
X017242Y020785D01*
X016381Y020627D02*
X016027Y020627D01*
X016165Y020785D02*
X016242Y020785D01*
X015381Y020627D02*
X015027Y020627D01*
X015165Y020785D02*
X015242Y020785D01*
X019127Y019993D02*
X021246Y019993D01*
X021254Y020007D02*
X021231Y019966D01*
X021219Y019920D01*
X021219Y019698D01*
X021577Y019698D01*
X021577Y020077D01*
X021375Y020077D01*
X021329Y020064D01*
X021288Y020041D01*
X021254Y020007D01*
X021219Y019834D02*
X019127Y019834D01*
X019088Y019676D02*
X019193Y019676D01*
X019417Y019676D02*
X021577Y019676D01*
X021577Y019834D02*
X021614Y019834D01*
X021614Y019993D02*
X021577Y019993D01*
X021577Y019517D02*
X021614Y019517D01*
X021614Y019359D02*
X021577Y019359D01*
X021251Y019359D02*
X019690Y019359D01*
X019678Y019200D02*
X021252Y019200D01*
X021219Y019517D02*
X019634Y019517D01*
X019586Y019042D02*
X020506Y019042D01*
X020845Y018515D02*
X020845Y018434D01*
X020881Y018398D01*
X020940Y018257D01*
X020940Y018103D01*
X020881Y017962D01*
X020773Y017854D01*
X020656Y017805D01*
X020773Y017756D01*
X020881Y017648D01*
X020940Y017507D01*
X020940Y017353D01*
X020937Y017345D01*
X021169Y017345D01*
X021169Y017367D01*
X021303Y017502D01*
X021887Y017502D01*
X021930Y017459D01*
X021963Y017492D01*
X021892Y017564D01*
X021862Y017546D01*
X021816Y017533D01*
X021614Y017533D01*
X021614Y017912D01*
X021577Y017912D01*
X021219Y017912D01*
X021219Y017690D01*
X021231Y017644D01*
X021254Y017603D01*
X021288Y017569D01*
X021329Y017546D01*
X021375Y017533D01*
X021577Y017533D01*
X021577Y017912D01*
X021577Y017948D01*
X021219Y017948D01*
X021219Y018170D01*
X021231Y018216D01*
X021254Y018257D01*
X021288Y018291D01*
X021329Y018314D01*
X021375Y018327D01*
X021577Y018327D01*
X021577Y017948D01*
X021614Y017948D01*
X021614Y018327D01*
X021816Y018327D01*
X021862Y018314D01*
X021892Y018296D01*
X021963Y018368D01*
X021930Y018401D01*
X021887Y018358D01*
X021303Y018358D01*
X021169Y018493D01*
X021169Y018515D01*
X020845Y018515D01*
X020872Y018408D02*
X021254Y018408D01*
X021250Y018249D02*
X020940Y018249D01*
X020935Y018091D02*
X021219Y018091D01*
X021577Y018091D02*
X021614Y018091D01*
X021614Y018249D02*
X021577Y018249D01*
X021577Y017932D02*
X020851Y017932D01*
X020732Y017774D02*
X021219Y017774D01*
X021247Y017615D02*
X020895Y017615D01*
X020940Y017457D02*
X021258Y017457D01*
X021577Y017615D02*
X021614Y017615D01*
X021614Y017774D02*
X021577Y017774D01*
X021577Y016189D02*
X021614Y016189D01*
X021614Y016030D02*
X021577Y016030D01*
X021577Y015872D02*
X021614Y015872D01*
X021614Y015713D02*
X021577Y015713D01*
X021219Y015713D02*
X020882Y015713D01*
X020940Y015872D02*
X021248Y015872D01*
X021216Y016030D02*
X020930Y016030D01*
X018638Y014604D02*
X018502Y014604D01*
X018502Y014445D02*
X018638Y014445D01*
X018638Y014287D02*
X018502Y014287D01*
X018502Y014128D02*
X018638Y014128D01*
X018638Y013977D02*
X019045Y013977D01*
X019045Y013626D01*
X019033Y013581D01*
X019009Y013539D01*
X018976Y013506D01*
X018934Y013482D01*
X018889Y013470D01*
X018638Y013470D01*
X018638Y013977D01*
X018638Y013970D02*
X018502Y013970D01*
X018502Y013811D02*
X018638Y013811D01*
X018638Y013653D02*
X018502Y013653D01*
X018502Y013494D02*
X018638Y013494D01*
X018955Y013494D02*
X019030Y013494D01*
X019045Y013653D02*
X019152Y013653D01*
X019255Y013811D02*
X019045Y013811D01*
X019045Y013970D02*
X019174Y013970D01*
X019170Y014128D02*
X019045Y014128D01*
X019045Y014287D02*
X019242Y014287D01*
X018198Y014604D02*
X018127Y014604D01*
X018134Y013494D02*
X018185Y013494D01*
X017523Y013177D02*
X016962Y013177D01*
X017059Y013336D02*
X017399Y013336D01*
X017681Y013019D02*
X016804Y013019D01*
X016330Y012860D02*
X019030Y012860D01*
X019080Y012702D02*
X016280Y012702D01*
X016280Y012543D02*
X019080Y012543D01*
X019507Y012226D02*
X019603Y012226D01*
X019603Y012068D02*
X019507Y012068D01*
X018660Y011751D02*
X033178Y011751D01*
X033112Y011592D02*
X018660Y011592D01*
X016817Y010958D02*
X014493Y010958D01*
X014652Y011117D02*
X016700Y011117D01*
X016700Y011275D02*
X014805Y011275D01*
X014845Y011434D02*
X016700Y011434D01*
X016700Y011592D02*
X014845Y011592D01*
X014845Y011751D02*
X016700Y011751D01*
X015853Y012068D02*
X015757Y012068D01*
X015757Y012226D02*
X015853Y012226D01*
X016208Y013653D02*
X016245Y013653D01*
X017030Y017457D02*
X017140Y017457D01*
X010801Y019517D02*
X010630Y019517D01*
X010696Y019359D02*
X010721Y019359D01*
X007392Y020627D02*
X007015Y020627D01*
X007160Y020785D02*
X007247Y020785D01*
X004169Y019993D02*
X003167Y019993D01*
X024755Y018249D02*
X034700Y018249D01*
X034700Y018091D02*
X024871Y018091D01*
X024871Y017932D02*
X034700Y017932D01*
X034700Y017774D02*
X024871Y017774D01*
X024871Y017615D02*
X034700Y017615D01*
X034700Y017457D02*
X024787Y017457D01*
X024821Y017298D02*
X034700Y017298D01*
X034700Y017140D02*
X024821Y017140D01*
X024821Y016981D02*
X034700Y016981D01*
X034700Y016823D02*
X024871Y016823D01*
X024871Y016664D02*
X034700Y016664D01*
X034700Y016506D02*
X024871Y016506D01*
X024871Y016347D02*
X034700Y016347D01*
X034700Y016189D02*
X024847Y016189D01*
X024871Y016030D02*
X034700Y016030D01*
X034700Y015872D02*
X024871Y015872D01*
X024871Y015713D02*
X034700Y015713D01*
X034700Y015555D02*
X024805Y015555D01*
X032445Y011200D02*
X032433Y011154D01*
X032445Y011200D02*
X032469Y011241D01*
X032503Y011275D01*
X008633Y004935D02*
X006102Y004935D01*
X006260Y005094D02*
X008475Y005094D01*
X008370Y005252D02*
X006365Y005252D01*
X006365Y005411D02*
X008370Y005411D01*
X008370Y005569D02*
X006365Y005569D01*
X006299Y005728D02*
X008436Y005728D01*
D30*
X008930Y005430D02*
X008930Y007220D01*
X009430Y009555D02*
X007640Y009555D01*
X006680Y010680D02*
X006430Y010430D01*
X001680Y010430D01*
X001305Y010805D01*
X001305Y011180D01*
X001805Y011430D02*
X001305Y011930D01*
X001305Y012180D01*
X001805Y011930D02*
X001805Y012430D01*
X001305Y012930D01*
X001305Y013180D01*
X002305Y013180D02*
X002305Y015055D01*
X002365Y014995D01*
X005430Y014995D01*
X005430Y015095D01*
X005430Y014995D02*
X007022Y014995D01*
X008930Y014995D01*
X008990Y014935D01*
X008990Y012397D01*
X008990Y011365D01*
X008305Y010680D01*
X007640Y010680D01*
X006970Y010680D02*
X006680Y010680D01*
X006970Y010680D02*
X006970Y010970D01*
X007180Y011180D01*
X008305Y011180D01*
X008675Y011550D01*
X008675Y012397D01*
X008360Y012397D02*
X008360Y011735D01*
X008055Y011430D01*
X006930Y011430D01*
X006180Y010680D01*
X001930Y010680D01*
X001805Y010805D01*
X001805Y011430D01*
X002055Y011680D02*
X001805Y011930D01*
X002055Y011680D02*
X002555Y011680D01*
X003305Y010930D01*
X006055Y010930D01*
X006805Y011680D01*
X007805Y011680D01*
X008045Y011920D01*
X008045Y012397D01*
X007730Y012397D02*
X007730Y012105D01*
X007555Y011930D01*
X006680Y011930D01*
X005930Y011180D01*
X003430Y011180D01*
X002430Y012180D01*
X002305Y012180D01*
X003805Y012305D02*
X003805Y012055D01*
X003805Y012305D02*
X005865Y014365D01*
X007022Y014365D01*
X007022Y014680D02*
X006930Y014680D01*
X007522Y014680D01*
X006930Y014680D02*
X006430Y014680D01*
X006050Y015310D02*
X005930Y015430D01*
X005930Y018305D01*
X006180Y018055D02*
X006180Y015680D01*
X006235Y015625D01*
X007022Y015625D01*
X007022Y015940D02*
X006545Y015940D01*
X006430Y016055D01*
X006430Y017805D01*
X006680Y017555D02*
X006680Y016305D01*
X006730Y016255D01*
X007022Y016255D01*
X007730Y016963D02*
X007730Y021331D01*
X007704Y021357D01*
X008704Y021357D02*
X008704Y020829D01*
X008045Y020170D01*
X008045Y016963D01*
X008360Y016963D02*
X008360Y019735D01*
X009704Y021079D01*
X009704Y021357D01*
X011196Y021430D02*
X011196Y020196D01*
X011180Y020180D01*
X010430Y020180D01*
X010180Y019930D01*
X010180Y018930D01*
X009640Y018390D01*
X009640Y018055D01*
X009620Y018035D01*
X009620Y016963D01*
X009620Y015060D01*
X009555Y014995D01*
X009740Y014995D01*
X010055Y014680D01*
X011588Y014680D01*
X012305Y014680D01*
X012430Y014555D01*
X012930Y014555D01*
X016645Y014555D01*
X016770Y014430D01*
X016770Y014045D01*
X016770Y013395D01*
X016555Y013180D01*
X015806Y013180D01*
X015805Y013179D01*
X014555Y012805D02*
X014555Y011430D01*
X014305Y011180D01*
X010430Y011180D01*
X010250Y011360D01*
X010250Y012397D01*
X010565Y012397D02*
X010565Y011545D01*
X010680Y011430D01*
X013555Y011430D01*
X013805Y011680D01*
X013805Y011952D01*
X013055Y011805D02*
X012930Y011680D01*
X011055Y011680D01*
X010880Y011855D01*
X010880Y012397D01*
X009935Y012397D02*
X009935Y010925D01*
X010305Y010555D01*
X013180Y010555D01*
X013430Y010305D01*
X013430Y009580D01*
X013455Y009555D01*
X015470Y009555D01*
X014055Y007220D02*
X014055Y005430D01*
X019180Y005430D02*
X019180Y007220D01*
X013055Y011805D02*
X013055Y012805D01*
X013805Y013408D02*
X013805Y013805D01*
X012930Y014515D02*
X012930Y014555D01*
X012115Y014995D02*
X011588Y014995D01*
X011088Y014995D01*
X011588Y015310D02*
X014555Y015310D01*
X014560Y015305D01*
X015430Y015305D01*
X015055Y015305D01*
X015050Y015310D01*
X014555Y015310D01*
X015875Y015625D02*
X011588Y015625D01*
X011588Y015940D02*
X016795Y015940D01*
X016805Y015930D01*
X016355Y016255D02*
X011588Y016255D01*
X011288Y016555D02*
X017305Y016555D01*
X017055Y017055D02*
X016640Y017055D01*
X015970Y017055D02*
X015305Y017055D01*
X014805Y017555D01*
X010805Y017555D01*
X010565Y017315D01*
X010565Y016963D01*
X010880Y016963D02*
X010880Y017130D01*
X010880Y016963D02*
X011288Y016555D01*
X010250Y016963D02*
X010250Y017375D01*
X010680Y017805D01*
X015970Y017805D01*
X016640Y017805D02*
X017305Y017805D01*
X017055Y018555D02*
X016640Y018555D01*
X015970Y018555D02*
X015305Y018555D01*
X014805Y018055D01*
X010555Y018055D01*
X009935Y017435D01*
X009935Y016963D01*
X009305Y016963D02*
X009305Y017430D01*
X008990Y017370D02*
X008930Y017430D01*
X008990Y017370D02*
X008990Y016963D01*
X008990Y016870D02*
X008990Y016463D01*
X009305Y016463D02*
X009305Y016930D01*
X007022Y015310D02*
X006050Y015310D01*
X005925Y014050D02*
X004180Y012305D01*
X004180Y012055D01*
X004555Y012055D02*
X004555Y012305D01*
X005985Y013735D01*
X007022Y013735D01*
X007022Y013420D02*
X006045Y013420D01*
X004930Y012305D01*
X004930Y012055D01*
X005305Y012055D02*
X005305Y012305D01*
X006105Y013105D01*
X007022Y013105D01*
X007022Y014050D02*
X005925Y014050D01*
X008930Y014995D02*
X009555Y014995D01*
X009490Y014365D02*
X009305Y014180D01*
X009305Y013430D01*
X009680Y013805D02*
X009680Y013930D01*
X009800Y014050D01*
X011588Y014050D01*
X011588Y013735D02*
X010110Y013735D01*
X010055Y013680D01*
X010055Y013430D01*
X009490Y014365D02*
X011588Y014365D01*
X009620Y012397D02*
X009620Y009745D01*
X009430Y009555D01*
X009655Y009555D01*
X009305Y011930D02*
X009305Y012397D01*
X002305Y015055D02*
X002305Y018055D01*
X003220Y018970D01*
X004555Y018970D01*
X005470Y018970D01*
X005704Y019204D01*
X005704Y021357D01*
X004555Y019640D02*
X002470Y019640D01*
X002430Y019680D01*
X004555Y018970D02*
X004555Y018390D01*
X004555Y017720D02*
X003470Y017720D01*
X003430Y017680D01*
X011180Y020180D02*
X016555Y020180D01*
X017390Y019345D01*
X018680Y019345D01*
X018720Y019305D01*
X019305Y019305D01*
X018704Y019913D02*
X018680Y020015D01*
X018704Y019913D02*
X018704Y021345D01*
X022265Y019680D02*
X022265Y018805D01*
X022305Y018845D01*
X024286Y018845D01*
X024286Y017861D02*
X023430Y017861D01*
X022624Y017055D01*
X022265Y017055D01*
X022265Y017930D01*
X021595Y017055D02*
X020680Y017055D01*
X020555Y017180D01*
X020555Y017430D01*
X020305Y017805D02*
X020805Y017805D01*
X020555Y018180D02*
X020555Y018680D01*
X020680Y018805D01*
X021595Y018805D01*
X022265Y016305D02*
X022680Y016305D01*
X023092Y015893D01*
X024286Y015893D01*
X024286Y014908D02*
X022783Y014908D01*
X022680Y014805D01*
X022265Y014805D01*
X022265Y015555D01*
X021595Y014805D02*
X020680Y014805D01*
X020555Y014930D01*
X020555Y015930D01*
X019555Y014055D02*
X019555Y013179D01*
X019554Y013180D01*
X017930Y013180D01*
X017670Y013440D01*
X017670Y014045D01*
X020930Y013055D02*
X021014Y012971D01*
X024286Y012971D01*
X024286Y013924D02*
X021311Y013924D01*
X021305Y013930D01*
X028805Y007220D02*
X028805Y005430D01*
X034055Y004430D02*
X034055Y002430D01*
X034055Y004430D02*
X034055Y006430D01*
X003805Y007220D02*
X003805Y005430D01*
D31*
X003805Y012055D03*
X004180Y012055D03*
X004555Y012055D03*
X004930Y012055D03*
X005305Y012055D03*
X003680Y013680D03*
X005430Y016180D03*
X006680Y017555D03*
X006430Y017805D03*
X006180Y018055D03*
X005930Y018305D03*
X008180Y015680D03*
X010430Y015680D03*
X009680Y013805D03*
X009305Y013430D03*
X010055Y013430D03*
X008180Y013805D03*
X012180Y012305D03*
X013055Y012805D03*
X013805Y013805D03*
X014555Y012805D03*
X015430Y015305D03*
X015875Y015625D03*
X016355Y016255D03*
X016805Y015930D03*
X017305Y016555D03*
X017055Y017055D03*
X017305Y017805D03*
X017055Y018555D03*
X019305Y019305D03*
X020555Y018180D03*
X020555Y017430D03*
X022680Y016305D03*
X020555Y015930D03*
X019555Y014055D03*
X020930Y013055D03*
X021305Y013930D03*
M02*
